<svg viewBox="0 0 100 100" fill="none" xmlns="http://www.w3.org/2000/svg">
    <path
        d="M94.1054 72.0156C92.5713 72.0156 91.2573 71.4759 90.1636 70.3963C89.0841 69.3168 88.5514 68.0099 88.5656 66.4759C88.5514 64.9702 89.0841 63.6847 90.1636 62.6193C91.2573 61.5398 92.5713 61 94.1054 61C95.5542 61 96.8326 61.5398 97.9406 62.6193C99.0627 63.6847 99.6309 64.9702 99.6451 66.4759C99.6309 67.4986 99.361 68.429 98.8355 69.267C98.3241 70.1051 97.6494 70.7727 96.8113 71.2699C95.9875 71.767 95.0855 72.0156 94.1054 72.0156Z"
        fill="#C64F6C" />
    <path
        d="M41.0781 43.4062H30.4247C30.2827 42.3125 29.9915 41.3253 29.5511 40.4446C29.1108 39.5639 28.5284 38.8111 27.804 38.1861C27.0795 37.5611 26.2202 37.0852 25.2259 36.7585C24.2457 36.4176 23.1591 36.2472 21.9659 36.2472C19.8494 36.2472 18.0241 36.7656 16.4901 37.8026C14.9702 38.8395 13.7983 40.3381 12.9744 42.2983C12.1648 44.2585 11.7599 46.6307 11.7599 49.4148C11.7599 52.3125 12.1719 54.7415 12.9957 56.7017C13.8338 58.6477 15.0057 60.1179 16.5114 61.1122C18.0313 62.0923 19.8281 62.5824 21.902 62.5824C23.0668 62.5824 24.125 62.4332 25.0767 62.1349C26.0426 61.8366 26.8878 61.4034 27.6122 60.8352C28.3509 60.2528 28.9545 59.5497 29.4233 58.7259C29.9063 57.8878 30.2401 56.9432 30.4247 55.892L41.0781 55.956C40.8935 57.8878 40.3324 59.7912 39.3949 61.6662C38.4716 63.5412 37.2003 65.2528 35.581 66.8011C33.9616 68.3352 31.9872 69.5568 29.6577 70.4659C27.3423 71.375 24.6861 71.8295 21.6889 71.8295C17.7401 71.8295 14.2031 70.9631 11.0781 69.2301C7.96733 67.483 5.50994 64.9403 3.70597 61.6023C1.90199 58.2642 1 54.2017 1 49.4148C1 44.6136 1.91619 40.544 3.74858 37.206C5.58097 33.8679 8.05966 31.3324 11.1847 29.5994C14.3097 27.8665 17.8111 27 21.6889 27C24.331 27 26.7741 27.3693 29.0185 28.108C31.2628 28.8324 33.2372 29.8977 34.9418 31.304C36.6463 32.696 38.0313 34.4077 39.0966 36.4389C40.1619 38.4702 40.8224 40.7926 41.0781 43.4062Z"
        fill="#1F2937" />
    <path
        d="M56.8821 27.5966L66.6406 59.5568H67.0028L76.7614 27.5966H88.5653L73.8423 71.233H59.8011L45.0781 27.5966H56.8821Z"
        fill="#1F2937" />
</svg>