<svg width="660" height="760" viewBox="0 0 660 760" fill="none" xmlns="http://www.w3.org/2000/svg">
<path d="M216.139 7.73047C268.201 -6.7052 296.255 0.592185 310.928 17.1934C318.24 25.467 321.776 35.6106 323.514 45.249C325.25 54.8755 325.243 64.3101 325.243 71.2793V119.778C325.243 120.507 325.046 121.19 324.706 121.778C325.046 122.367 325.243 123.05 325.243 123.779V661.781C325.243 661.832 325.239 661.878 325.237 661.914C325.24 662.35 325.243 662.808 325.243 663.279C325.242 702.079 302.555 740.164 272.403 753.918C256.941 760.971 233.99 760.629 211.256 754.452C189.422 748.52 167.048 737.013 150.609 720.396C149.634 719.41 148.423 718.7 147.102 718.351C114.974 709.848 88.4065 692.775 68.7748 667.838C48.9947 642.712 36.4082 609.802 32.0639 570.057C31.9323 568.853 31.5012 567.693 30.8149 566.698C12.5958 540.31 3.56794 519.082 0.882263 497.59C-1.77775 476.301 1.84284 455.152 8.17133 429.128C8.45621 427.956 8.4388 426.725 8.12152 425.558C1.01483 399.406 -1.59206 379.653 1.93109 362.557C5.26366 346.387 13.9681 333.09 28.3276 319.226C30.1669 317.45 30.9827 314.848 30.476 312.355C23.6392 278.727 27.221 259.223 35.5219 244.729C39.8448 237.18 45.3354 231.204 50.6928 225.526C55.6265 220.298 60.4281 215.339 64.6674 209.37C64.9531 208.968 65.0948 208.447 65.0463 207.895C64.9178 206.429 64.7488 204.319 64.5864 201.725C64.2617 196.538 63.9608 189.387 64.0561 181.543C64.1512 173.711 64.6421 165.112 65.9252 157.05C67.1987 149.049 69.298 141.267 72.7846 135.27C79.2746 124.107 90.1599 111.209 100.325 100.817C105.429 95.5997 110.422 90.9422 114.684 87.3857C116.813 85.6095 118.796 84.0766 120.545 82.8779C122.23 81.7237 123.929 80.716 125.443 80.1836C127.247 79.549 128.833 78.7735 130.709 77.9385C132.423 77.1761 134.509 76.3037 136.683 76.0342C138.844 75.7664 141.092 76.0917 143.236 77.415C151.818 39.0074 186.777 20.0044 213.157 8.60742L213.277 8.56055L213.52 8.47363L213.642 8.43359L216.139 7.73047ZM350.58 22.3652C365.386 8.89684 392.261 1.70502 440.29 7.69043L442.63 7.99023L442.638 7.99121L445.042 8.31641L445.177 8.33887C445.222 8.34809 445.267 8.35979 445.311 8.37207L445.83 8.5166L445.959 8.55664C446.002 8.57165 446.044 8.5886 446.085 8.60645C472.465 20.0034 507.424 39.0065 516.007 77.4141C518.151 76.0911 520.398 75.7654 522.56 76.0332L522.966 76.0908C524.993 76.4116 526.927 77.2229 528.533 77.9375C530.41 78.7729 531.995 79.549 533.799 80.1836C535.312 80.7158 537.012 81.7224 538.697 82.877C540.446 84.0754 542.43 85.6082 544.559 87.3848C548.821 90.9413 553.815 95.5998 558.918 100.817C569.083 111.209 579.968 124.107 586.457 135.27C589.944 141.267 592.043 149.048 593.317 157.049C594.6 165.111 595.092 173.711 595.187 181.543C595.282 189.387 594.98 196.537 594.656 201.724C594.493 204.319 594.324 206.429 594.196 207.895C594.147 208.446 594.288 208.966 594.573 209.367H594.574C598.813 215.337 603.616 220.296 608.55 225.525C613.908 231.203 619.397 237.18 623.72 244.729C632.021 259.223 635.603 278.727 628.766 312.355C628.259 314.848 629.075 317.45 630.914 319.226L632.244 320.523C645.813 333.924 654.083 346.891 657.312 362.556C660.835 379.652 658.227 399.404 651.121 425.556C650.803 426.723 650.786 427.955 651.071 429.127C657.399 455.151 661.02 476.3 658.36 497.589C655.674 519.082 646.647 540.309 628.427 566.698C627.741 567.692 627.31 568.854 627.178 570.058C622.834 609.802 610.247 642.712 590.467 667.838C571.142 692.385 545.097 709.311 513.642 717.944L512.14 718.349C510.82 718.698 509.609 719.408 508.633 720.395C492.194 737.012 469.82 748.519 447.986 754.451C425.252 760.628 402.301 760.971 386.839 753.918C379.804 750.709 373.36 748.432 367.053 745.871C360.901 743.372 355.025 740.651 350.02 736.723C339.764 728.673 334.078 716.311 333.999 693.572V692.477L334.218 655V595.003L333.999 214.282V71.2783L334.012 68.5967C334.151 54.8592 335.707 36.4513 349.872 23.0215L350.58 22.3652ZM35.1782 323.746C20.701 337.428 12.7548 349.67 9.76605 364.171C6.58771 379.594 8.88418 398.152 16.1547 424.606C16.3393 425.278 16.6328 425.933 17.0151 426.531C21.4821 433.517 22.5288 435.558 24.8813 438.013C27.5086 440.754 31.507 443.72 42.7328 452.649V452.65C44.4604 454.025 44.7485 456.541 43.3735 458.271L43.2407 458.429C41.8412 460.015 39.427 460.243 37.7524 458.911L33.9858 455.924C25.8163 449.462 21.8371 446.399 19.1049 443.548C18.0144 442.41 16.5108 442.003 15.2514 442.228C14.0461 442.443 13.1206 443.205 12.8383 444.523C8.64611 464.112 6.79971 480.423 8.82074 496.598C11.3092 516.512 19.7225 536.653 37.7338 562.64C38.2692 563.412 38.9677 564.072 39.7631 564.556C74.7948 585.856 107.719 591.214 133.424 592.787C139.98 593.188 146.067 593.344 151.628 593.455C157.154 593.565 162.247 593.633 166.663 593.864C171.056 594.094 175.051 594.495 178.364 595.351C181.64 596.197 184.801 597.625 186.901 600.324C187.053 600.519 187.188 600.666 187.298 600.78C187.382 600.671 187.477 600.535 187.581 600.366C188.9 598.23 190.07 593.49 189.688 587.017L189.648 586.421C188.732 573.837 182.085 556.981 163.654 545.691C144.384 533.889 133.793 534.027 122.125 531.435C116.138 530.104 110.09 528.067 103.059 523.392C96.2067 518.834 88.5553 511.86 79.1118 500.857L78.9623 500.677C78.6231 500.248 78.3436 499.771 78.1352 499.264C77.8978 498.686 77.7527 498.071 77.7075 497.449C76.7349 484.068 76.3045 473.894 75.9809 465.903C75.6498 457.728 75.435 452.025 74.895 447.435C74.3663 442.942 73.5433 439.708 72.0688 436.536C70.6596 433.505 68.5774 430.355 65.2817 426.122L65.2807 426.123L64.5991 425.254L64.6 425.253C63.2798 423.574 63.5152 421.165 65.1059 419.772L65.2641 419.641C66.8906 418.357 69.2028 418.538 70.6147 419.995L70.684 420.071L70.8188 420.226L70.8823 420.302C74.6911 425.126 77.4222 429.073 79.3237 433.164C81.255 437.319 82.244 441.432 82.8403 446.5C83.4251 451.472 83.649 457.552 83.9741 465.579C84.2719 472.934 84.6608 482.085 85.477 493.879C85.5804 495.373 86.1652 496.789 87.142 497.897C95.3813 507.247 101.903 513.015 107.49 516.73C113.521 520.741 118.599 522.457 123.861 523.626C134.697 526.034 147.105 526.174 167.832 538.869C189.108 551.901 196.795 571.688 197.673 586.544C197.993 591.959 197.42 596.959 196.101 600.836C198.267 602.131 199.601 604.266 200.518 606.222L200.698 606.614C201.661 608.764 202.46 611.371 203.24 613.951C203.945 616.284 204.667 618.711 205.545 621.198L205.932 622.269C208.042 627.975 210.964 633.652 215.914 638.169C220.809 642.635 227.993 646.244 239.12 647.298C241.319 647.506 242.933 649.458 242.725 651.657V651.658C242.516 653.856 240.565 655.471 238.366 655.263L237.193 655.142C225.191 653.802 216.665 649.682 210.524 644.079C204.242 638.347 200.755 631.335 198.428 625.043V625.042C197.269 621.906 196.369 618.865 195.583 616.267C194.772 613.581 194.113 611.483 193.397 609.884C192.647 608.21 192.123 607.777 191.994 607.701L191.995 607.7C191.99 607.698 191.987 607.697 191.987 607.697L191.986 607.696C191.985 607.696 191.983 607.696 191.981 607.695C191.976 607.694 191.967 607.693 191.955 607.691H191.939C191.926 607.692 191.902 607.695 191.867 607.703C191.789 607.721 191.673 607.76 191.496 607.84C191.308 607.924 191.124 608.02 190.856 608.156C190.611 608.28 190.299 608.436 189.963 608.57C189.344 608.818 188.68 608.984 187.976 609.046C184.783 609.327 182.279 607.413 180.585 605.236C180.06 604.561 178.906 603.754 176.363 603.097C173.854 602.449 170.514 602.076 166.245 601.853C161.997 601.63 157.092 601.565 151.468 601.453C145.88 601.342 139.661 601.184 132.936 600.772C110.793 599.418 83.1394 595.31 53.3041 580.997C50.6344 579.717 47.7226 580.123 45.6157 581.574C43.5316 583.01 42.308 585.401 42.8383 588.191C48.5409 618.19 59.5507 643.189 75.06 662.89C94.0533 687.016 119.953 703.401 151.638 711.257C152.191 711.394 152.729 711.611 153.227 711.903V711.904C153.724 712.197 154.172 712.558 154.56 712.971C169.925 729.337 191.775 740.868 213.354 746.731C235.244 752.679 256.045 752.587 269.082 746.64C295.93 734.393 317.242 699.477 317.243 663.279C317.243 662.636 317.239 662.033 317.234 661.468C315.55 663.853 313.446 666.818 310.885 670.068C299.326 684.74 278.327 705.42 241.011 710.521L240.997 710.522L239.241 710.749L239.127 710.761L238.922 710.775L238.819 710.78C236.79 710.82 235.022 709.319 234.772 707.264V707.263C234.522 705.205 235.881 703.326 237.86 702.879L237.956 702.86L238.157 702.825L238.245 702.812L239.934 702.593C274.448 697.872 293.767 678.868 304.601 665.117C307.368 661.605 309.573 658.447 311.384 655.883C312.276 654.62 313.107 653.453 313.847 652.495C314.547 651.589 315.352 650.618 316.207 649.91C316.574 649.607 316.86 649.313 317.043 649.044C317.224 648.78 317.243 648.634 317.243 648.581V596.646C317.242 591.77 312.145 588.02 306.918 589.136C293.965 591.901 279.799 591.742 266.65 588.32C247.781 583.409 230.651 571.658 222.539 551.792C217.2 538.714 218.729 529.541 219.714 521.811C220.202 517.983 220.52 514.752 220.054 511.371C219.6 508.07 218.362 504.42 215.414 499.999C214.228 498.219 214.657 495.833 216.355 494.571L216.524 494.452C218.304 493.266 220.691 493.695 221.953 495.394L222.071 495.562C225.623 500.889 227.345 505.67 227.98 510.279C228.603 514.808 228.142 518.97 227.651 522.821C226.679 530.449 225.458 537.778 229.946 548.769C236.886 565.766 251.618 576.141 268.664 580.578C283.339 584.397 299.458 583.723 313.084 579.187C315.581 578.356 317.243 575.895 317.243 573.062V502.541C317.243 502.391 317.201 502.194 317.063 501.687C316.965 501.328 316.793 500.731 316.751 500.064C316.741 500.023 316.727 499.962 316.704 499.881C316.616 499.582 316.463 499.14 316.23 498.546C315.767 497.366 315.061 495.776 314.125 493.86C312.258 490.038 309.557 485.079 306.28 479.785C299.656 469.089 290.97 457.509 282.329 450.969C268.835 440.758 249.355 431.513 229.048 424.164C225.253 422.791 221.031 423.474 216.765 425.462C212.506 427.447 208.426 430.637 205.117 433.87C204.839 434.141 204.557 434.409 204.271 434.674C198.146 440.343 189.828 444.828 181.124 447.744C172.414 450.662 163.028 452.106 154.655 451.441C146.362 450.783 138.427 447.984 133.581 441.73C129.085 435.929 126.89 428.246 125.547 420.254C124.206 412.267 123.616 403.221 122.762 394.678C120.991 376.962 118.008 361.238 106.774 352.427C94.6051 342.883 76.7937 335.68 61.7075 330.838C54.2224 328.435 47.5172 326.647 42.687 325.461C40.2734 324.868 38.3303 324.426 36.9975 324.134C36.3319 323.988 35.8177 323.878 35.4731 323.807C35.355 323.782 35.2573 323.762 35.1782 323.746ZM430.276 14.6357C388.847 10.725 367.272 17.9619 355.91 28.3311L355.376 28.8271C342.989 40.5709 341.999 57.2211 341.999 71.2783V214.277L342.004 223.574C342.006 226.865 343.445 229.659 345.157 230.982C345.988 231.625 346.805 231.869 347.539 231.81C348.257 231.751 349.17 231.377 350.168 230.26C351.367 228.918 352.478 227.361 353.497 225.679C355.223 222.827 356.521 219.872 357.391 217.604L357.694 216.795C357.976 216.025 358.195 215.375 358.352 214.888C358.455 214.567 358.531 214.316 358.581 214.149L358.63 213.984C358.63 213.984 358.63 213.983 358.63 213.981C358.631 213.98 358.632 213.977 358.632 213.975C358.633 213.971 358.635 213.966 358.636 213.96C358.638 213.954 358.64 213.945 358.643 213.936L358.653 213.901C359.255 211.791 361.45 210.559 363.568 211.146C364.237 211.331 364.822 211.679 365.289 212.134L365.483 212.335L365.655 212.545C366.039 213.058 366.295 213.732 366.204 214.5C366.2 214.533 366.194 214.565 366.189 214.598C366.351 214.909 366.426 215.243 366.426 215.537C366.426 215.707 366.402 215.888 366.35 216.074L366.352 216.075C366.354 216.067 366.357 216.06 366.358 216.056C366.359 216.051 366.359 216.047 366.36 216.045L366.361 216.043V216.044L366.36 216.046C366.359 216.05 366.357 216.058 366.355 216.067C366.352 216.077 366.348 216.09 366.344 216.104C366.341 216.117 366.332 216.146 366.323 216.18C366.305 216.242 366.28 216.328 366.248 216.435C366.183 216.653 366.088 216.961 365.965 217.343C365.718 218.109 365.35 219.188 364.86 220.468C363.883 223.014 362.39 226.435 360.34 229.821C359.127 231.826 357.651 233.925 355.899 235.842C352.817 239.214 349.372 242.554 346.59 246.249C343.83 249.916 342.022 253.571 342.024 257.329L342.075 344.648C342.076 346.559 343.06 348.338 344.739 349.71C346.427 351.089 348.687 351.933 350.872 351.971C355.281 352.046 360.09 352.774 363.789 353.101C367.795 353.454 370.954 353.413 373.526 352.511C375.866 351.689 378.067 350.026 379.902 346.255C380.868 344.269 383.263 343.442 385.249 344.408L385.432 344.503C387.225 345.491 387.983 347.682 387.182 349.566L387.097 349.754C384.432 355.231 380.695 358.473 376.175 360.06C371.889 361.564 367.267 361.439 363.085 361.069C358.589 360.672 354.812 360.039 350.736 359.97C350.241 359.961 349.752 359.962 349.271 359.974C345.067 360.072 342.085 364.153 342.088 369.367L342.138 458.774C342.15 458.797 342.183 458.844 342.262 458.915C342.456 459.089 342.813 459.289 343.306 459.42C343.791 459.549 344.291 459.579 344.702 459.52C345.125 459.458 345.306 459.327 345.351 459.282C349.28 455.33 354.216 453.33 359.849 453.392C364.679 453.445 369.845 455.007 375.244 457.807L376.326 458.383L376.346 458.394L377.474 459.026C377.508 459.046 377.542 459.067 377.576 459.088L377.747 459.198L377.833 459.256C379.482 460.439 380 462.7 378.968 464.497V464.498C377.935 466.295 375.722 466.984 373.871 466.157C373.84 466.144 373.809 466.129 373.78 466.114L373.597 466.021C373.573 466.009 373.55 465.996 373.527 465.983L372.485 465.399V465.4C367.407 462.629 363.176 461.429 359.759 461.392C356.253 461.353 353.405 462.526 351.023 464.923C348.54 467.421 346.378 471.447 344.849 477.345C343.327 483.217 342.499 490.696 342.499 499.807L342.494 500.044C342.466 500.59 342.35 501.083 342.285 501.38C342.192 501.798 342.164 501.962 342.164 502.088L342.215 590.419C342.216 592.31 342.956 594.057 344.282 595.21H344.283C348.996 599.306 355.99 604.165 363.3 606.355C367.883 607.728 372.332 607.977 376.377 606.609C380.358 605.263 384.436 602.187 388.042 595.988C389.118 594.14 391.449 593.473 393.331 594.443L393.511 594.542C395.421 595.653 396.066 598.103 394.956 600.012C390.564 607.561 385.077 612.112 378.94 614.188C372.867 616.241 366.642 615.708 361.003 614.019C359.294 613.506 357.619 612.882 355.994 612.179C353.054 610.906 349.541 611.173 346.765 612.614C344.01 614.045 342.218 616.484 342.218 619.435V655.023L342.06 682.08C342.039 685.665 345.049 688.751 349.112 690.944C349.662 691.241 350.184 691.562 350.68 691.9C353.647 693.927 355.606 696.636 357.098 698.501C358.683 700.482 359.98 701.88 361.918 702.828C363.851 703.773 366.875 704.474 372.154 704.015L372.36 704.002C374.474 703.927 376.298 705.522 376.484 707.652V707.653C376.675 709.853 375.047 711.794 372.846 711.985H372.845C366.626 712.526 362.035 711.789 358.406 710.016C354.785 708.246 352.567 705.644 350.851 703.499C349.036 701.23 347.911 699.696 346.168 698.506C345.303 697.915 344.466 698.025 343.697 698.673C342.85 699.386 342.229 700.699 342.35 702.132C343.649 717.559 348.41 725.289 354.958 730.43C359.04 733.633 364.046 736.015 370.064 738.459C375.929 740.841 382.945 743.349 390.16 746.64C403.197 752.587 423.998 752.678 445.888 746.73C467.467 740.867 489.319 729.336 504.684 712.969C505.073 712.555 505.52 712.194 506.015 711.903C506.511 711.612 507.048 711.394 507.604 711.256L509.085 710.881C539.605 703.013 564.678 687.152 583.287 664.015L584.182 662.889C601.521 640.864 613.237 612.214 618.2 577.36C618.739 573.569 615.954 570.369 612.179 570.414C609.207 570.449 605.544 570.46 602.551 568.943L602.263 568.792C598.654 566.812 597.057 563.171 596.662 558.549C596.276 554.044 596.934 547.807 598.57 539.249V539.248C598.985 537.079 601.081 535.658 603.249 536.071H603.25C605.42 536.486 606.842 538.581 606.428 540.75V540.751C604.814 549.193 604.347 554.52 604.633 557.867C604.773 559.499 605.071 560.429 605.349 560.959C605.6 561.437 605.859 561.64 606.111 561.778L606.269 561.857C606.663 562.039 607.237 562.196 608.121 562.295C609.13 562.408 610.41 562.434 612.085 562.414C613.578 562.396 615.362 562.347 617.259 562.366C619.98 562.394 622.496 561.218 623.891 559.147C640.266 534.83 648.045 515.611 650.421 496.597C652.442 480.421 650.596 464.11 646.404 444.521C646.121 443.203 645.197 442.442 643.992 442.227C642.732 442.002 641.229 442.409 640.138 443.547C637.016 446.805 632.264 450.34 621.49 458.91C619.815 460.241 617.401 460.014 616.001 458.428L615.869 458.27C614.494 456.541 614.782 454.024 616.509 452.649L623.665 446.98C629.649 442.251 632.39 440.068 634.361 438.012C636.713 435.557 637.76 433.516 642.227 426.53C642.609 425.933 642.903 425.277 643.087 424.605C650.358 398.151 652.654 379.594 649.476 364.171C646.489 349.676 638.548 337.438 624.081 323.762C623.371 323.867 622.622 323.783 621.914 323.477L621.892 323.47C621.895 323.471 621.897 323.472 621.898 323.473L621.891 323.47H621.89C621.882 323.466 621.869 323.461 621.852 323.454C621.797 323.433 621.683 323.39 621.514 323.334C621.174 323.222 620.61 323.059 619.835 322.908C618.286 322.606 615.874 322.348 612.689 322.649C606.355 323.249 596.691 326.089 584.468 335.675C584.442 335.695 584.416 335.715 584.389 335.733L584.222 335.852C584.194 335.871 584.165 335.891 584.136 335.909C582.42 336.995 580.131 336.625 578.853 334.995H578.852C577.49 333.258 577.792 330.744 579.531 329.38C592.807 318.967 603.894 315.446 611.935 314.685C615.215 314.374 617.945 314.527 620.061 314.834C627.83 279.722 624.078 261.45 616.779 248.704C612.977 242.066 608.091 236.697 602.73 231.016C598.033 226.038 592.945 220.791 588.385 214.463C587.883 214.865 587.237 215.472 586.456 216.382L586.095 216.812C584.344 218.952 581.974 220.19 579.288 219.887L579.027 219.853C576.656 219.499 574.852 218.037 573.734 216.919C572.537 215.722 571.59 214.372 570.971 213.395H570.97C570.652 212.892 570.399 212.454 570.223 212.136C570.134 211.975 570.064 211.842 570.014 211.748C569.991 211.703 569.969 211.66 569.958 211.639C569.957 211.636 569.955 211.632 569.953 211.628C569.952 211.627 569.951 211.625 569.95 211.623C569.949 211.622 569.948 211.619 569.947 211.616C569.943 211.61 569.939 211.602 569.935 211.594C569.932 211.588 569.929 211.582 569.926 211.576C569.925 211.574 569.924 211.572 569.923 211.571L569.922 211.57V211.569C569.818 211.361 569.752 211.136 569.725 210.906L569.711 210.675L569.721 210.477C569.734 210.344 569.761 210.214 569.799 210.088C569.789 210.059 569.778 210.029 569.768 209.999C569.497 209.159 569.695 208.351 570.059 207.736H570.06C570.44 207.096 571.003 206.555 571.71 206.201V206.2C573.685 205.214 576.086 206.013 577.076 207.985C577.078 207.99 577.079 207.994 577.081 207.996L577.099 208.031L577.223 208.26C577.339 208.469 577.512 208.77 577.731 209.116H577.73C578.189 209.842 578.776 210.648 579.39 211.263C579.596 211.468 579.773 211.619 579.917 211.729C582.234 208.902 584.358 207.26 586.292 206.42C586.405 205.077 586.54 203.314 586.671 201.224C586.987 196.176 587.279 189.232 587.187 181.64C587.095 174.035 586.617 165.853 585.415 158.307C584.205 150.699 582.303 144.042 579.54 139.29V139.289C573.53 128.952 563.165 116.599 553.199 106.411C548.237 101.339 543.443 96.8736 539.433 93.5273C537.426 91.8528 535.65 90.4878 534.174 89.4766C532.634 88.4211 531.637 87.9037 531.145 87.7305V87.7295C528.938 86.9531 526.843 85.9415 525.28 85.2461C523.768 84.5734 522.729 84.1849 521.913 84.0264L521.576 83.9727C521.004 83.902 520.627 83.9627 520.214 84.2158L520.035 84.3359C519.459 84.7535 518.581 85.687 517.503 87.7246C517.371 87.9754 517.263 88.2325 517.181 88.4912L517.109 88.75C516.185 92.517 516.958 94.8547 517.61 96.4014C517.735 96.6991 517.822 96.8905 517.91 97.084C518 97.2832 518.098 97.4974 518.234 97.8125C518.374 98.1373 518.684 98.8469 518.817 99.6777L518.862 100.04V100.041C518.912 100.613 518.886 101.419 518.526 102.282V102.283C518.147 103.191 517.524 103.865 516.85 104.319H516.849C515.858 104.987 514.768 105.174 514.077 105.244L513.806 105.268C511.604 105.436 509.681 103.789 509.511 101.587V101.586C509.444 100.707 509.668 99.8678 510.1 99.1719C509.134 96.7839 508.155 93.2468 509.012 88.3955L509.17 87.543C509.32 86.6692 509.369 85.868 509.27 85.1367C504.739 51.7412 478.667 33.0212 453.467 20.7744C450.028 19.1035 445.664 20.8546 442.869 24.6035C440.715 27.4915 438.241 29.5734 435.49 30.9932C430.118 33.7648 424.288 33.6767 419.351 33.3389C414.191 32.9857 410.176 32.4197 406.491 33.0225L406.134 33.085C404.434 33.4003 402.905 33.9742 401.516 34.9844C400.125 35.9963 398.775 37.5178 397.539 39.8643C397.523 39.893 397.507 39.9222 397.491 39.9502L397.386 40.127C397.368 40.1569 397.35 40.1869 397.331 40.2158C396.208 41.905 393.968 42.5044 392.135 41.5391H392.134C390.18 40.5088 389.432 38.0889 390.46 36.1357L390.472 36.1133L390.785 35.5381L390.796 35.5176C394.362 29.1312 399.255 26.2253 404.677 25.2197C409.766 24.2763 415.463 25.0529 419.898 25.3564C424.713 25.6859 428.57 25.5614 431.822 23.8838C432.715 23.4229 433.603 22.8223 434.473 22.0293C435.845 20.7788 435.947 19.2303 435.159 17.7549C434.322 16.1888 432.5 14.8459 430.276 14.6357ZM126.166 634.104C128.133 633.262 130.401 634.117 131.332 636.017L131.418 636.204C139.351 654.709 147.007 666.707 157.747 674.964C168.498 683.228 182.811 688.104 204.821 691.323C207.006 691.643 208.52 693.673 208.201 695.858L208.2 695.859C207.879 698.043 205.851 699.558 203.664 699.238L201.571 698.924C180.137 695.616 164.834 690.501 152.872 681.307C140.516 671.808 132.193 658.313 124.067 639.356L123.99 639.165C123.28 637.245 124.141 635.092 125.979 634.19L126.166 634.104ZM478.376 607.082C486.294 606.891 494.207 606.958 502.115 607.283C517.551 610.247 527.71 619.199 532.592 634.14C533.118 636.228 533.554 638.306 533.9 640.376V648.423C533.074 654.957 530.76 660.925 526.959 666.327C526.892 670.485 526.825 674.642 526.758 678.8C526.321 680.645 525.348 682.154 523.841 683.326C521.192 685.02 518.576 686.763 515.996 688.557C511.434 691.159 506.538 692.165 501.31 691.574C497.348 691.16 493.392 690.724 489.441 690.267C489.242 691.291 488.605 691.761 487.53 691.675C481.262 691.081 474.992 690.511 468.72 689.965C467.944 689.944 467.206 689.776 466.507 689.462C466.159 688.989 466.025 688.452 466.105 687.853C463.151 687.524 460.201 687.155 457.253 686.746C454.571 685.807 452.861 683.963 452.123 681.214C452.023 676.722 451.989 672.229 452.023 667.735C449.876 667.769 447.73 667.735 445.585 667.635C445.418 667.467 445.25 667.299 445.082 667.132C444.982 664.987 444.948 662.841 444.982 660.694C440.489 660.728 435.996 660.694 431.503 660.594C431.328 660.384 431.126 660.216 430.9 660.091V651.239C431.126 651.114 431.328 650.946 431.503 650.736C436.13 650.636 440.757 650.602 445.384 650.636C443.544 636.876 447.701 625.308 457.857 615.934C463.768 610.901 470.608 607.95 478.376 607.082ZM507.949 671.759C502.742 676.709 496.573 679.861 489.441 681.214V687.048C493.796 687.532 498.155 688.001 502.517 688.456C505.578 688.245 507.422 686.635 508.049 683.628C508.216 679.637 508.182 675.681 507.949 671.759ZM469.122 686.847C474.823 687.304 480.523 687.773 486.222 688.255V667.735H469.122V686.847ZM498.091 610.401C507.902 615.016 514.575 622.46 518.108 632.731C521.872 645.693 519.659 657.495 511.469 668.138C511.402 673.368 511.335 678.599 511.268 683.829C511.084 685.169 510.749 686.443 510.262 687.651C511.67 687.099 513.045 686.461 514.386 685.74C516.564 684.215 518.777 682.74 521.025 681.314C522.152 680.59 522.991 679.617 523.539 678.397C523.887 674.916 523.921 671.428 523.64 667.937C521.348 668.685 519.035 669.356 516.7 669.948C516.304 669.94 515.935 669.839 515.593 669.646C514.68 668.471 514.881 667.532 516.197 666.83C518.879 666.025 521.562 665.221 524.244 664.416C525.952 662.174 527.327 659.726 528.368 657.073C531.978 647.085 531.374 637.362 526.557 627.903C520.151 617.008 510.662 611.174 498.091 610.401ZM455.04 670.149C455.007 673.235 455.04 676.319 455.141 679.403C455.292 681.687 456.466 683.129 458.662 683.729C461.123 684.002 463.571 684.304 466.004 684.634C466.139 682.488 466.139 680.342 466.004 678.196C461.897 676.126 458.242 673.444 455.04 670.149ZM482.199 609.999C475.886 610.203 469.985 611.913 464.496 615.129C451.997 623.674 446.699 635.51 448.603 650.636C449.946 650.669 451.287 650.636 452.626 650.535C450.617 639.734 453.433 630.413 461.076 622.572C462.824 622.021 463.663 622.658 463.59 624.483C456.457 631.823 453.875 640.54 455.845 650.636H467.111C465.171 644.905 465.875 639.541 469.223 634.542C474.465 628.395 480.936 626.617 488.636 629.211C496.052 632.809 499.372 638.743 498.594 647.015C497.609 652.545 494.625 656.569 489.642 659.085C489.407 665.387 489.374 671.691 489.541 677.995C495.425 676.646 500.623 673.997 505.132 670.049C516.643 658.698 519.493 645.454 513.682 630.317C507.185 617.427 496.69 610.654 482.199 609.999ZM466.105 667.735C463.186 667.669 460.302 667.736 457.455 667.937C460.042 670.49 462.892 672.704 466.004 674.575C466.105 672.296 466.139 670.016 466.105 667.735ZM478.779 614.022C491.031 613.126 500.721 617.619 507.848 627.501C512.823 635.447 514.097 643.963 511.67 653.05C508.862 661.691 503.396 668.028 495.275 672.061C493.532 672.262 492.828 671.49 493.163 669.747C496.587 667.933 499.672 665.653 502.416 662.907C510.406 653.322 511.747 642.86 506.44 631.524C499.93 620.709 490.374 616.049 477.773 617.543C476.521 617.797 475.28 618.099 474.051 618.448C473.079 618.281 472.509 617.71 472.341 616.738C472.422 616.158 472.69 615.688 473.146 615.33C475.029 614.8 476.907 614.364 478.779 614.022ZM447.999 664.718H486.222V660.694H447.999V664.718ZM433.917 653.653V657.677C450.145 657.71 466.373 657.677 482.601 657.576C486.12 657.459 489.138 656.184 491.654 653.754C472.409 653.653 453.163 653.62 433.917 653.653ZM492.861 636.554C491.734 636.708 490.593 636.942 489.441 637.258C483.769 639.986 481.623 644.445 483.003 650.636C486.694 650.703 490.382 650.636 494.068 650.435C494.684 649.224 495.12 647.949 495.375 646.612C495.976 642.868 495.137 639.515 492.861 636.554ZM489.843 633.637C486.928 631.668 483.709 630.896 480.187 631.323C477.818 631.871 475.672 632.91 473.749 634.441C469.08 639.071 468.075 644.402 470.732 650.435C473.747 650.669 476.765 650.703 479.785 650.535C479.511 649.407 479.31 648.267 479.181 647.115C479.746 640.248 483.3 635.755 489.843 633.637ZM466.708 618.046C469.186 617.877 469.79 618.849 468.519 620.963C466.541 621.399 465.77 620.628 466.206 618.649C466.416 618.474 466.583 618.273 466.708 618.046ZM423.643 510.013C424.903 510.141 425.888 511.206 425.888 512.5C425.888 513.794 424.903 514.859 423.643 514.987L423.388 515H420.957V532.814C420.957 533.5 421.129 534.176 421.457 534.777H421.458L431.642 553.408C432.188 553.826 432.556 554.462 432.615 555.188L439.617 567.996H439.616C440.373 569.381 440.757 570.939 440.73 572.517C440.703 574.094 440.265 575.639 439.46 576.996C438.656 578.353 437.511 579.478 436.14 580.259C434.855 580.991 433.41 581.398 431.934 581.445L431.639 581.45H392.093C390.515 581.45 388.963 581.04 387.592 580.259C386.221 579.478 385.077 578.353 384.272 576.996C383.467 575.639 383.029 574.094 383.001 572.517C382.974 570.939 383.359 569.381 384.117 567.996L391.118 555.187C391.177 554.461 391.545 553.825 392.09 553.407L402.274 534.777C402.603 534.175 402.775 533.5 402.775 532.814V515H400.346C398.966 515 397.846 513.881 397.846 512.5C397.846 511.119 398.966 510 400.346 510H423.388L423.643 510.013ZM388.503 570.395L388.502 570.396C388.162 571.018 387.989 571.72 388.001 572.43C388.014 573.14 388.211 573.835 388.573 574.445C388.935 575.056 389.45 575.563 390.067 575.914C390.684 576.265 391.382 576.45 392.092 576.45H431.64C432.35 576.45 433.049 576.265 433.665 575.914C434.282 575.563 434.798 575.056 435.16 574.445C435.522 573.835 435.719 573.14 435.731 572.43C435.743 571.72 435.571 571.018 435.23 570.396L435.229 570.395L428.395 557.892H395.337L388.503 570.395ZM575.767 493.292C578.128 493.292 580.042 495.206 580.042 497.566V519.1C580.042 521.461 578.128 523.375 575.767 523.375H566.901C564.54 523.375 562.625 521.461 562.625 519.1V507.619C559.249 507.85 556.678 508.601 554.902 509.87C552.889 511.308 551.542 513.669 551.542 517.833V522.029C556.195 522.974 559.86 526.639 560.804 531.292H587.167C588.479 531.292 589.542 532.356 589.542 533.667C589.542 534.978 588.479 536.042 587.167 536.042H560.804C559.86 540.695 556.195 544.359 551.542 545.304V550.292H587.167C588.479 550.292 589.542 551.356 589.542 552.667C589.542 553.978 588.479 555.042 587.167 555.042H542.833C541.522 555.042 540.459 553.978 540.458 552.667C540.458 551.355 541.522 550.292 542.833 550.292H546.792V545.304C541.372 544.204 537.293 539.412 537.292 533.667C537.292 527.922 541.372 523.129 546.792 522.029V517.833C546.792 512.498 548.612 508.526 552.141 506.005C554.962 503.99 558.616 503.099 562.625 502.861V497.566C562.626 495.206 564.54 493.292 566.901 493.292H575.767ZM407.775 532.812L407.771 533.098C407.727 534.524 407.347 535.921 406.662 537.176L398.071 552.892H425.662L417.071 537.176C416.34 535.838 415.957 534.337 415.957 532.812V515H407.775V532.812ZM318.124 497.9C317.657 498.052 317.347 498.349 317.194 498.537C316.991 498.785 316.899 499.023 316.865 499.115C316.823 499.23 316.799 499.326 316.788 499.38C316.764 499.487 316.756 499.572 316.752 499.605C316.745 499.678 316.744 499.735 316.744 499.747C316.743 499.756 316.743 499.769 316.743 499.779H318.738C318.728 499.726 318.7 499.582 318.622 499.318C318.517 498.959 318.352 498.486 318.124 497.9ZM577.667 486.958C578.979 486.958 580.042 488.022 580.042 489.333C580.042 490.644 578.979 491.708 577.667 491.708H565C563.689 491.708 562.625 490.645 562.625 489.333C562.626 488.021 563.689 486.958 565 486.958H577.667ZM304.933 22.4902C294.041 10.1669 272.097 2.18693 226.636 13.2607C222.963 14.1559 220.696 18.0813 221.371 22.2617C221.898 25.53 222.018 28.2851 221.842 30.6963C221.489 35.5269 219.945 38.6929 218.924 41.0947C217.975 43.3294 217.398 45.0055 217.731 47.8076C218.096 50.8825 219.603 55.5492 223.776 63.4033C227.824 71.0227 232.99 77.459 237.991 83.7432C242.868 89.873 247.785 96.0789 250.51 102.771C253.353 109.754 253.824 117.247 250.143 125.786C246.677 133.825 239.622 142.585 228.003 152.808L227.997 152.812L226.868 153.799L226.784 153.868L226.622 153.994L226.54 154.055C224.879 155.222 222.575 154.963 221.219 153.398L221.218 153.397C219.864 151.832 219.939 149.516 221.33 148.039L221.405 147.963L221.553 147.821L221.619 147.763L222.731 146.791C233.967 136.902 240.011 129.079 242.796 122.618C245.568 116.189 245.195 110.931 243.101 105.789C240.889 100.358 236.775 95.0633 231.73 88.7236C226.809 82.5394 221.162 75.5365 216.71 67.1572C212.383 59.0122 210.327 53.3015 209.787 48.752C209.214 43.9308 210.387 40.7307 211.562 37.9658C212.668 35.3635 213.622 33.405 213.863 30.1133C213.961 28.7684 213.938 27.1585 213.705 25.1846C213.258 21.4135 208.976 19.2068 205.133 21.0898C180.131 33.3438 154.464 52.0276 149.972 85.1387C149.859 85.9741 149.94 86.9007 150.142 87.9229C151.151 93.0183 150.139 96.7079 149.142 99.1729C149.574 99.8685 149.798 100.708 149.731 101.587V101.588C149.561 103.789 147.638 105.438 145.436 105.269L145.165 105.245C144.474 105.175 143.383 104.988 142.393 104.32H142.392C141.718 103.865 141.095 103.191 140.716 102.284V102.283C140.356 101.42 140.33 100.613 140.38 100.041C140.467 99.0583 140.848 98.1845 141.008 97.8125C141.144 97.4974 141.242 97.2831 141.332 97.084C141.42 96.8905 141.507 96.6984 141.632 96.4004C142.284 94.8538 143.057 92.5188 142.134 88.7539C142.049 88.4071 141.916 88.061 141.739 87.7266C140.66 85.687 139.783 84.7541 139.207 84.3369L139.208 84.3359C138.721 83.9829 138.32 83.8927 137.666 83.9736L137.33 84.0273C136.513 84.186 135.474 84.5744 133.962 85.2471C132.398 85.9431 130.304 86.9541 128.096 87.7305C127.604 87.9037 126.609 88.4216 125.068 89.4775C123.592 90.4889 121.816 91.8536 119.809 93.5283C115.799 96.8747 111.005 101.34 106.043 106.412C96.077 116.601 85.7115 128.954 79.7016 139.291C76.9388 144.043 75.0375 150.699 73.8266 158.307C72.6255 165.853 72.1475 174.036 72.0551 181.641C71.9629 189.233 72.2548 196.177 72.5707 201.225C72.7017 203.316 72.8407 205.079 72.9536 206.423C74.8869 207.264 77.0099 208.904 79.3246 211.729C79.4688 211.62 79.6465 211.469 79.852 211.264C80.4661 210.649 81.0521 209.843 81.5121 209.116H81.5112C81.6215 208.942 81.7209 208.779 81.8061 208.635L82.02 208.26C82.0762 208.158 82.118 208.08 82.143 208.032C82.1522 208.015 82.1561 208.007 82.1674 207.985L82.1684 207.984L82.1821 207.96C82.1918 207.941 82.202 207.923 82.2123 207.904C82.2141 207.901 82.2156 207.897 82.2172 207.895C82.2204 207.889 82.2239 207.884 82.227 207.879C82.2213 207.889 82.216 207.899 82.2104 207.909C82.221 207.89 82.2302 207.874 82.2377 207.861C82.2387 207.86 82.2398 207.858 82.2407 207.856C82.2434 207.852 82.2454 207.847 82.2475 207.844L82.2514 207.836C82.2492 207.84 82.2439 207.849 82.2368 207.861C82.2322 207.869 82.2252 207.88 82.2172 207.895C83.2337 205.991 85.5875 205.23 87.5317 206.201V206.202C87.6195 206.246 87.7045 206.293 87.7856 206.341L88.02 206.491C88.627 206.911 89.37 207.705 89.3286 208.881C89.3196 209.133 89.2743 209.364 89.2055 209.575C89.574 210.14 89.6243 210.858 89.3735 211.453L89.3149 211.576H89.3159C89.3177 211.573 89.3194 211.569 89.3207 211.566C89.3234 211.561 89.3255 211.556 89.3266 211.554L89.3276 211.553C89.3273 211.553 89.327 211.555 89.3266 211.556C89.3219 211.566 89.3081 211.594 89.2905 211.629L89.2895 211.63C89.274 211.66 89.2576 211.691 89.2504 211.704C89.2407 211.722 89.2347 211.735 89.228 211.748C89.181 211.837 89.1099 211.971 89.019 212.136C88.8426 212.454 88.5897 212.892 88.2719 213.395H88.2709C87.6528 214.371 86.7069 215.722 85.5092 216.92C84.3904 218.039 82.5858 219.5 80.2153 219.854L79.9545 219.888C77.2686 220.191 74.8978 218.953 73.1469 216.813L72.7866 216.383C72.0058 215.473 71.3595 214.866 70.8578 214.464C66.2978 220.792 61.2092 226.039 56.5121 231.017C51.1508 236.698 46.265 242.066 42.4633 248.704C35.0911 261.577 31.3359 280.088 39.4155 315.891C39.4607 316.091 39.4935 316.295 39.517 316.498C40.8363 316.793 42.5546 317.19 44.5942 317.691C49.5604 318.911 56.4512 320.749 64.1528 323.221C79.4413 328.128 98.3804 335.677 111.711 346.133C125.976 357.321 128.994 376.594 130.723 393.881C131.619 402.838 132.155 411.292 133.438 418.93C134.72 426.562 136.651 432.631 139.905 436.829C142.809 440.576 148.122 442.898 155.289 443.467C162.378 444.03 170.673 442.808 178.582 440.158C186.498 437.507 193.74 433.52 198.837 428.803C200.484 427.279 201.873 425.711 202.989 424.118C204.326 422.208 204.289 420.143 203.251 417.87C202.179 415.521 200.101 413.155 197.757 411.131C194.432 408.259 191.39 404.71 188.668 400.76C183.092 392.667 178.612 382.546 175.643 372.057C172.766 361.894 171.256 351.207 171.614 341.467L171.655 340.527C171.881 335.95 172.535 331.514 173.707 327.423C170.399 327.512 167.471 326.144 164.967 324.227C162.069 322.006 159.35 318.765 156.702 315.241C154.063 311.73 151.147 307.453 148.12 303.245C135.748 286.047 118.874 266.218 87.1235 265.277L86.9174 265.267C84.8086 265.096 83.1815 263.299 83.2446 261.161V261.16C83.3106 258.953 85.1544 257.216 87.3618 257.281C123.11 258.341 141.988 281.019 154.616 298.573C157.84 303.055 160.501 306.982 163.096 310.436C165.682 313.876 167.855 316.362 169.831 317.875C171.725 319.326 173.011 319.568 174.088 319.358C175.279 319.127 177.11 318.178 179.663 315.304L180.202 314.681L183.867 310.34C187.617 305.874 191.499 301.112 194.96 296.08C199.585 289.357 203.296 282.379 204.919 275.312C206.52 268.347 206.106 261.259 202.41 254.056C198.668 246.766 191.389 239.024 178.647 231.188C152.193 214.918 141.298 201.655 138.692 189.368C137.383 183.195 138.257 177.654 139.791 172.694H139.792C141.234 168.037 143.573 163.099 145.006 159.352C148.706 149.677 157.562 141.972 164.895 136.871C168.642 134.264 172.169 132.217 174.758 130.821C175.406 130.472 175.998 130.162 176.521 129.894L177.874 129.215L178.755 128.791C178.863 128.741 178.956 128.698 178.997 128.679C179.012 128.672 179.048 128.656 179.066 128.647H179.067C179.078 128.642 179.089 128.638 179.1 128.633L179.103 128.632H179.102C179.408 128.495 179.699 128.457 179.918 128.457C180.126 128.457 180.353 128.493 180.578 128.571C180.608 128.561 180.64 128.551 180.671 128.542C181.416 128.335 182.121 128.486 182.687 128.787L182.921 128.925C183.544 129.329 184.063 129.912 184.389 130.635C185.296 132.646 184.403 135.01 182.396 135.921C182.397 135.92 182.398 135.92 182.399 135.92L182.391 135.924C182.381 135.929 182.363 135.937 182.341 135.947C182.304 135.964 182.241 135.993 182.154 136.034C181.982 136.115 181.725 136.237 181.394 136.399V136.398C180.726 136.725 179.751 137.219 178.555 137.863C176.16 139.155 172.905 141.045 169.465 143.438C162.423 148.337 155.279 154.884 152.479 162.208C150.657 166.974 148.812 170.606 147.434 175.06C146.151 179.207 145.581 183.297 146.517 187.709C148.402 196.595 156.759 208.334 182.838 224.373C196.362 232.69 204.906 241.399 209.527 250.403C214.193 259.495 214.683 268.545 212.716 277.104C210.773 285.561 206.447 293.495 201.55 300.613C196.653 307.733 191.005 314.288 186.299 319.86C182.347 324.541 180.09 331.878 179.643 340.922C179.2 349.885 180.562 360.056 183.342 369.877C186.123 379.7 190.269 388.985 195.254 396.221C200.295 403.535 205.883 408.316 211.379 409.944C238.547 417.994 268.088 430.16 287.157 444.59C296.706 451.816 305.746 463.886 312.44 474.546L313.081 475.573C313.566 476.357 314.538 476.699 315.598 476.426C316.65 476.154 317.243 475.431 317.243 474.57V390.996C317.243 385.309 313.502 380.26 308.041 378.294C274.358 366.167 258.863 350.912 252.641 334.984C246.125 318.303 250.334 301.599 251.648 290.874L251.768 289.834L251.78 289.749L251.812 289.547L251.831 289.445C252.239 287.523 254 286.166 255.982 286.286L256.174 286.303C258.234 286.527 259.756 288.276 259.743 290.305L259.74 290.406L259.728 290.61L259.718 290.725L259.588 291.852L259.586 291.862C258.124 303.942 254.502 317.757 260.094 332.074C264.612 343.64 275.528 356.048 300.865 366.891C308.691 370.24 317.242 364.181 317.243 355.323V209.902L282.272 201.16L282.074 201.105C280.05 200.489 278.843 198.384 279.362 196.309C279.898 194.166 282.071 192.863 284.213 193.398L301.09 197.617C309.295 199.668 317.242 193.463 317.243 185.006V123.779C317.243 123.052 317.438 122.371 317.777 121.783C317.438 121.195 317.243 120.51 317.243 119.778V71.2793C317.243 64.2483 317.235 55.4944 315.643 46.6689C314.053 37.8556 310.932 29.2785 304.933 22.4902ZM466.032 400C467.639 400.53 468.671 401.608 469.125 403.234H476.157C476.619 401.6 477.65 400.522 479.25 400H481.5C484.039 400.974 485.164 402.826 484.875 405.555C488.795 407.809 492.733 410.036 496.688 412.234C498.539 410.746 500.508 410.582 502.594 411.742C503.366 412.396 503.928 413.193 504.282 414.133C505.969 414.227 507.657 414.227 509.344 414.133C508.604 413.545 508.464 412.842 508.922 412.023C509.198 411.893 509.479 411.775 509.766 411.672C510.053 411.775 510.334 411.893 510.61 412.023C511.388 412.918 512.185 413.785 513 414.625V416.172C512.189 417.054 511.345 417.921 510.469 418.773C508.993 419.172 508.454 418.633 508.852 417.156L509.485 416.523C507.751 416.43 506.016 416.43 504.282 416.523C503.267 419.094 501.391 420.125 498.657 419.617C498.042 419.439 497.503 419.134 497.039 418.703C495.75 420.086 494.461 421.469 493.172 422.852C495.006 425.84 496.858 428.817 498.727 431.781C501.429 431.222 503.28 432.23 504.282 434.805C506.016 434.898 507.751 434.898 509.485 434.805C508.82 434.389 508.562 433.803 508.711 433.047C509.024 432.434 509.517 432.223 510.188 432.414C511.252 433.267 512.19 434.228 513 435.297V436.703C512.181 437.828 511.196 438.789 510.047 439.586C508.97 439.68 508.525 439.188 508.711 438.109C508.916 437.764 509.174 437.459 509.485 437.195C507.751 437.102 506.016 437.102 504.282 437.195C503.28 439.77 501.429 440.778 498.727 440.219C497.044 442.904 495.38 445.6 493.735 448.305C495.036 449.846 496.418 451.322 497.883 452.734C499.925 451.83 501.753 452.158 503.368 453.719C503.728 454.276 504.033 454.862 504.282 455.477C506.016 455.57 507.751 455.57 509.485 455.477C508.498 454.765 508.405 453.969 509.204 453.086C509.644 452.975 510.066 453.022 510.469 453.227C511.345 454.079 512.189 454.946 513 455.828V457.375C512.185 458.215 511.388 459.082 510.61 459.977C509.868 460.448 509.235 460.33 508.711 459.625C508.508 458.891 508.719 458.305 509.344 457.867C507.657 457.773 505.969 457.773 504.282 457.867C502.872 460.915 500.622 461.758 497.532 460.398C497.276 460.153 496.994 459.942 496.688 459.766C492.733 461.964 488.795 464.191 484.875 466.445C484.762 467.207 484.691 467.981 484.664 468.766C484.049 469.452 483.393 469.499 482.696 468.906C482.576 468.242 482.482 467.585 482.414 466.938C481.67 465.5 480.568 465.149 479.11 465.883C478.135 466.842 478.018 467.897 478.758 469.047C479.355 469.646 480.082 469.904 480.938 469.82C481.7 470.104 481.958 470.643 481.711 471.438C481.566 471.652 481.402 471.84 481.219 472H479.25C477.647 471.474 476.615 470.396 476.157 468.766C473.859 468.742 471.562 468.766 469.266 468.836C468.665 470.398 467.587 471.453 466.032 472H463.782C461.277 471.046 460.246 469.241 460.688 466.586C456.68 464.277 452.648 462.003 448.594 459.766C447.093 461.069 445.405 461.373 443.532 460.68C442.256 460.085 441.412 459.124 441 457.797V455.547C442.233 452.541 444.389 451.603 447.469 452.734C448.901 451.279 450.307 449.802 451.688 448.305C449.995 445.598 448.284 442.902 446.555 440.219C443.806 440.77 441.954 439.738 441 437.125V434.875C441.954 432.262 443.806 431.23 446.555 431.781C448.425 428.814 450.277 425.838 452.11 422.852C450.823 421.471 449.533 420.087 448.243 418.703C446.133 420.259 444.094 420.165 442.125 418.422C441.6 417.838 441.225 417.181 441 416.453V414.203C442.379 411.141 444.629 410.274 447.75 411.602C448.051 411.785 448.333 411.996 448.594 412.234C452.648 409.997 456.68 407.723 460.688 405.414C460.462 404.48 460.532 403.566 460.899 402.672C461.527 402.263 462.113 402.31 462.657 402.812C462.767 403.508 462.837 404.211 462.868 404.922C463.532 406.483 464.633 406.882 466.172 406.117C467.456 404.951 467.456 403.778 466.172 402.602C465.382 402.37 464.609 402.112 463.852 401.828C463.496 401.104 463.613 400.495 464.204 400H466.032ZM467.157 467.641C466.837 466.009 465.853 465.306 464.204 465.531C463.798 465.725 463.446 466.007 463.149 466.375C462.561 467.512 462.725 468.519 463.641 469.398C465.482 470.165 466.655 469.579 467.157 467.641ZM472.5 461.453C471.283 462.695 470.087 463.96 468.914 465.25C468.917 465.636 469.011 466.011 469.196 466.375C471.505 466.514 473.826 466.561 476.157 466.516C476.282 466.083 476.399 465.661 476.508 465.25C475.23 463.901 473.894 462.636 472.5 461.453ZM455.907 455.336C453.842 455.735 451.779 456.18 449.719 456.672C449.68 457.086 449.727 457.485 449.86 457.867C453.688 460.039 457.532 462.172 461.391 464.266C459.654 461.238 457.826 458.262 455.907 455.336ZM489.375 455.336C487.512 458.299 485.684 461.275 483.891 464.266C487.843 462.125 491.781 459.945 495.704 457.727C495.572 457.392 495.525 457.04 495.563 456.672C493.502 456.18 491.44 455.735 489.375 455.336ZM460.547 454C459.813 454.231 459.062 454.466 458.297 454.703C460.067 457.633 461.871 460.539 463.711 463.422C464.097 463.332 464.496 463.285 464.907 463.281C465.729 463.3 466.527 463.417 467.297 463.633C468.441 462.348 469.637 461.106 470.883 459.906C470.877 459.656 470.783 459.422 470.602 459.203L467.086 455.688C464.646 456.783 462.654 456.243 461.11 454.07C460.928 454.001 460.74 453.978 460.547 454ZM484.172 454C483.397 455.479 482.155 456.229 480.446 456.25C479.628 456.209 478.854 456.044 478.125 455.758C476.706 457.034 475.464 458.416 474.399 459.906L478.125 463.633C478.841 463.389 479.591 463.272 480.375 463.281C480.786 463.285 481.185 463.331 481.571 463.422C483.475 460.528 485.327 457.598 487.125 454.633C486.149 454.377 485.164 454.166 484.172 454ZM499.5 454.422C499.007 454.66 498.562 454.988 498.164 455.406C497.52 456.687 497.778 457.741 498.938 458.57C500.316 459.088 501.324 458.689 501.961 457.375C502.274 455.475 501.453 454.491 499.5 454.422ZM444.938 454.422C443.291 455.118 442.846 456.29 443.602 457.938C444.774 459.062 445.946 459.062 447.118 457.938C447.894 455.834 447.167 454.662 444.938 454.422ZM469.266 452.875C469.137 453.297 468.949 453.696 468.704 454.07L472.711 458.078C473.949 456.7 475.238 455.363 476.579 454.07C476.298 453.72 476.157 453.321 476.157 452.875H469.266ZM492.329 450.344C491.792 451.277 491.3 452.214 490.852 453.156C492.586 453.625 494.321 454.094 496.055 454.562C496.149 454.422 496.149 454.281 496.055 454.141C494.781 452.89 493.538 451.624 492.329 450.344ZM452.813 450.344C451.623 451.698 450.404 453.034 449.157 454.352C449.391 454.445 449.626 454.445 449.86 454.352C451.477 453.982 453.071 453.56 454.641 453.086C454.011 452.175 453.402 451.261 452.813 450.344ZM464.485 449.641C463.006 450.254 462.514 451.333 463.008 452.875C464.449 454.431 465.762 454.337 466.946 452.594C467.257 450.69 466.436 449.705 464.485 449.641ZM479.813 449.641C479.359 449.881 478.961 450.21 478.618 450.625C478.001 451.815 478.212 452.823 479.25 453.648C481.047 454.297 482.172 453.687 482.625 451.82C482.292 450.317 481.354 449.591 479.813 449.641ZM456.469 446.547C455.806 447.209 455.197 447.913 454.641 448.656C455.355 450.038 456.176 451.351 457.102 452.594C458.244 452.279 459.393 451.998 460.547 451.75C460.56 451.123 460.63 450.514 460.758 449.922C459.346 448.767 457.916 447.642 456.469 446.547ZM488.672 446.547C487.316 447.691 485.933 448.816 484.524 449.922C484.627 450.502 484.745 451.088 484.875 451.68C485.966 452.017 487.068 452.322 488.18 452.594C489.119 451.346 489.986 450.034 490.782 448.656C490.123 447.903 489.419 447.2 488.672 446.547ZM472.641 445.562C471.357 446.917 470.044 448.253 468.704 449.57C468.924 449.894 469.088 450.246 469.196 450.625C471.505 450.764 473.826 450.811 476.157 450.766C476.157 450.319 476.298 449.921 476.579 449.57C475.234 448.249 473.921 446.913 472.641 445.562ZM462.657 439.938C461.186 441.573 459.685 443.19 458.157 444.789C459.498 445.99 460.881 447.139 462.305 448.234C463.842 447.232 465.436 447.138 467.086 447.953L470.743 444.297C470.881 444.12 470.927 443.932 470.883 443.734C469.637 442.535 468.441 441.293 467.297 440.008C466.527 440.224 465.729 440.341 464.907 440.359C464.12 440.393 463.369 440.253 462.657 439.938ZM474.329 443.875C475.517 445.275 476.783 446.611 478.125 447.883C478.829 447.59 479.58 447.426 480.375 447.391C481.343 447.38 482.21 447.662 482.977 448.234C484.38 447.136 485.763 446.011 487.125 444.859C485.651 443.221 484.151 441.604 482.625 440.008C481.91 440.252 481.16 440.369 480.375 440.359C479.589 440.393 478.838 440.253 478.125 439.938C476.863 441.247 475.597 442.56 474.329 443.875ZM450.282 441.414C450.15 441.317 450.056 441.34 450 441.484C451.134 443.139 452.235 444.826 453.305 446.547L454.782 445.07C453.282 443.852 451.782 442.633 450.282 441.414ZM495.141 441.484C493.65 442.623 492.173 443.795 490.711 445C490.618 445.094 490.618 445.187 490.711 445.281L491.907 446.477C492.024 446.573 492.117 446.55 492.188 446.406C493.211 444.781 494.195 443.14 495.141 441.484ZM449.579 437.125C449.59 437.326 449.543 437.514 449.438 437.688C451.65 439.665 453.947 441.54 456.329 443.312C457.92 441.697 459.491 440.056 461.039 438.391C460.93 437.98 460.813 437.558 460.688 437.125H449.579ZM484.594 437.125C484.551 437.558 484.411 437.957 484.172 438.32C485.748 440.036 487.365 441.7 489.024 443.312C491.269 441.56 493.496 439.779 495.704 437.969C495.806 437.702 495.806 437.42 495.704 437.125H484.594ZM469.266 437.125C469.061 437.531 468.944 437.953 468.914 438.391C470.084 439.724 471.326 440.99 472.641 442.188C473.951 440.947 475.241 439.682 476.508 438.391C476.399 437.98 476.282 437.558 476.157 437.125H469.266ZM444.657 433.891C444.251 434.085 443.899 434.366 443.602 434.734C443.015 435.871 443.179 436.879 444.094 437.758C445.231 438.345 446.239 438.181 447.118 437.266C447.905 434.982 447.084 433.857 444.657 433.891ZM499.922 433.75C499.495 433.852 499.073 434.017 498.657 434.242C497.595 435.328 497.548 436.453 498.516 437.617C499.759 438.39 500.861 438.226 501.821 437.125C502.474 435.291 501.841 434.166 499.922 433.75ZM467.157 436C466.837 434.369 465.853 433.666 464.204 433.891C463.798 434.085 463.446 434.366 463.149 434.734C462.561 435.871 462.725 436.879 463.641 437.758C465.482 438.524 466.655 437.938 467.157 436ZM482.625 436C482.307 434.369 481.322 433.666 479.672 433.891C479.339 434.071 479.035 434.306 478.758 434.594C478.004 435.758 478.122 436.813 479.11 437.758C480.952 438.524 482.124 437.938 482.625 436ZM472.5 429.812C471.283 431.054 470.087 432.32 468.914 433.609C468.917 433.995 469.011 434.37 469.196 434.734C471.505 434.874 473.826 434.921 476.157 434.875C476.282 434.442 476.399 434.02 476.508 433.609C475.23 432.261 473.894 430.995 472.5 429.812ZM457.032 427.984C454.715 429.902 452.371 431.8 450 433.68C449.787 433.87 449.599 434.081 449.438 434.312C449.543 434.486 449.59 434.674 449.579 434.875H460.688C460.926 434.119 461.231 433.416 461.602 432.766C460.097 431.144 458.574 429.55 457.032 427.984ZM488.11 428.125C486.713 429.733 485.237 431.28 483.68 432.766C483.867 433.185 484.102 433.607 484.383 434.031C484.498 434.303 484.568 434.585 484.594 434.875H495.704C495.806 434.58 495.806 434.298 495.704 434.031C493.313 432.086 490.922 430.14 488.532 428.195C488.399 428.127 488.258 428.104 488.11 428.125ZM462.235 423.766C461.177 424.752 460.052 425.666 458.86 426.508C460.453 428.195 462.047 429.883 463.641 431.57C464.89 431.574 466.109 431.715 467.297 431.992C468.441 430.707 469.637 429.465 470.883 428.266C470.927 428.068 470.881 427.88 470.743 427.703L467.086 424.047C465.413 424.858 463.796 424.765 462.235 423.766ZM482.907 423.766C482.731 423.996 482.496 424.16 482.204 424.258C480.811 424.735 479.452 424.689 478.125 424.117C476.706 425.393 475.464 426.776 474.399 428.266L478.125 431.992C478.841 431.748 479.591 431.631 480.375 431.641C480.786 431.644 481.185 431.691 481.571 431.781C483.214 430.068 484.831 428.334 486.422 426.578C485.277 425.607 484.105 424.67 482.907 423.766ZM453.657 424.609C452.494 426.629 451.275 428.621 450 430.586C450.094 430.679 450.188 430.68 450.282 430.586C451.975 429.126 453.71 427.72 455.485 426.367C454.936 425.831 454.421 425.269 453.938 424.68C453.854 424.615 453.76 424.591 453.657 424.609ZM491.485 424.609C490.952 425.213 490.389 425.799 489.797 426.367C491.564 427.783 493.345 429.167 495.141 430.516C493.996 428.508 492.777 426.539 491.485 424.609ZM469.266 421.234C469.137 421.657 468.949 422.055 468.704 422.43L472.711 426.438C473.949 425.059 475.238 423.723 476.579 422.43C476.298 422.079 476.157 421.681 476.157 421.234H469.266ZM455.063 422.5C455.815 423.276 456.542 424.073 457.243 424.891C458.414 423.953 459.587 423.016 460.758 422.078C460.63 421.486 460.56 420.877 460.547 420.25C459.329 419.969 458.11 419.687 456.891 419.406C456.289 420.433 455.68 421.464 455.063 422.5ZM487.969 419.406C486.953 419.708 485.922 420.013 484.875 420.32C484.78 420.867 484.639 421.406 484.454 421.938C485.656 422.904 486.852 423.888 488.039 424.891C488.844 424.157 489.571 423.36 490.219 422.5C489.633 421.516 489.047 420.531 488.461 419.547C488.319 419.429 488.155 419.382 487.969 419.406ZM464.485 418C463.95 418.18 463.504 418.508 463.149 418.984C462.535 420.164 462.746 421.172 463.782 422.008C465.578 422.656 466.703 422.047 467.157 420.18C466.919 418.655 466.028 417.928 464.485 418ZM479.954 418C479.569 418.169 479.194 418.38 478.829 418.633C477.973 419.887 478.114 421.012 479.25 422.008C481.047 422.656 482.172 422.047 482.625 420.18C482.388 418.655 481.497 417.928 479.954 418ZM450.844 417.859C450.759 417.877 450.712 417.924 450.704 418C451.585 418.952 452.499 419.89 453.446 420.812C453.791 420.144 454.19 419.511 454.641 418.914C453.4 418.501 452.134 418.15 450.844 417.859ZM494.297 417.859C493.165 418.196 492.016 418.524 490.852 418.844C491.088 419.556 491.463 420.213 491.977 420.812C492.769 419.879 493.613 418.989 494.508 418.141C494.582 417.956 494.512 417.862 494.297 417.859ZM472.5 413.781C471.264 415.182 469.998 416.565 468.704 417.93C468.924 418.254 469.088 418.605 469.196 418.984C471.505 419.124 473.826 419.171 476.157 419.125C476.157 418.679 476.298 418.28 476.579 417.93C475.187 416.562 473.827 415.179 472.5 413.781ZM477.844 408.156C476.655 409.51 475.436 410.846 474.188 412.164C475.449 413.566 476.762 414.926 478.125 416.242C480.679 415.229 482.789 415.814 484.454 418C485.346 417.798 486.237 417.587 487.125 417.367C485.327 414.402 483.475 411.472 481.571 408.578C480.278 408.848 479.035 408.707 477.844 408.156ZM466.875 408.297C466.626 408.452 466.344 408.569 466.032 408.648C465.183 408.706 464.362 408.729 463.571 408.719C461.813 411.578 460.055 414.438 458.297 417.297C459.212 417.643 460.149 417.854 461.11 417.93C462.654 415.757 464.646 415.217 467.086 416.312C468.375 414.93 469.665 413.547 470.954 412.164C469.684 410.941 468.465 409.675 467.297 408.367C467.164 408.299 467.023 408.276 466.875 408.297ZM444.797 413.219C443.355 413.856 442.91 414.934 443.461 416.453C444.637 417.884 445.856 417.931 447.118 416.594C447.916 414.394 447.142 413.269 444.797 413.219ZM499.36 413.219C499.041 413.426 498.713 413.637 498.375 413.852C497.519 415.099 497.66 416.224 498.797 417.227C500.638 417.876 501.764 417.243 502.172 415.328C501.875 413.765 500.937 413.062 499.36 413.219ZM461.391 407.734C457.532 409.828 453.688 411.961 449.86 414.133C449.727 414.515 449.68 414.914 449.719 415.328C451.779 415.82 453.842 416.265 455.907 416.664C457.826 413.738 459.654 410.762 461.391 407.734ZM483.891 407.734C485.684 410.725 487.512 413.701 489.375 416.664C491.44 416.265 493.502 415.82 495.563 415.328C495.525 414.96 495.572 414.608 495.704 414.273C491.781 412.055 487.843 409.875 483.891 407.734ZM469.266 405.484C469.061 405.891 468.944 406.313 468.914 406.75C470.082 408.058 471.301 409.324 472.571 410.547C473.836 409.188 475.102 407.828 476.368 406.469C476.306 406.151 476.236 405.823 476.157 405.484H469.266ZM482.625 404.359C482.307 402.729 481.322 402.026 479.672 402.25C479.267 402.444 478.915 402.725 478.618 403.094C478.03 404.23 478.194 405.238 479.11 406.117C480.952 406.883 482.124 406.297 482.625 404.359ZM398.965 358.277C403.143 358.226 406.21 360.023 408.164 363.668C408.754 366.141 407.875 367.841 405.528 368.766C401.583 368.844 397.637 368.844 393.692 368.766C391.245 367.837 390.366 366.099 391.055 363.551C392.782 360.431 395.419 358.673 398.965 358.277ZM417.95 358.277C422.006 358.225 425.033 359.943 427.032 363.434C427.82 366.055 426.941 367.833 424.395 368.766C420.489 368.844 416.582 368.844 412.676 368.766C410.814 368.189 409.838 366.92 409.747 364.957C409.754 364.341 409.891 363.755 410.157 363.199C411.942 360.266 414.54 358.625 417.95 358.277ZM436.934 358.277C440.874 358.225 443.862 359.866 445.899 363.199C446.641 364.976 446.348 366.558 445.02 367.945C444.539 368.342 443.991 368.616 443.379 368.766C439.473 368.844 435.567 368.844 431.661 368.766C429.415 368.04 428.458 366.497 428.789 364.137C429.944 361.381 431.956 359.564 434.825 358.688C435.537 358.512 436.241 358.375 436.934 358.277ZM535.207 305C546.288 306.304 554.635 311.759 560.247 321.365C562.321 325.275 563.572 329.418 564 333.793V339.207C562.697 350.288 557.242 358.635 547.635 364.247C543.725 366.321 539.582 367.572 535.207 368H529.793C518.713 366.696 510.366 361.241 504.753 351.635C502.679 347.725 501.428 343.582 501 339.207V333.793C501.708 326.931 504.292 320.881 508.752 315.644C509.461 315.157 510.055 315.259 510.537 315.951C510.619 316.238 510.619 316.525 510.537 316.812C503.125 325.816 501.28 335.864 504.999 346.959C508.874 356.411 515.744 362.461 525.61 365.108C538.065 367.506 548.258 363.794 556.187 353.973C562.185 345.323 563.456 336.012 560.001 326.041C556.127 316.589 549.257 310.539 539.391 307.892C529.437 305.828 520.577 308.043 512.813 314.536C511.787 314.699 511.315 314.269 511.398 313.244C511.663 312.79 512.012 312.401 512.444 312.075C517.526 308.017 523.309 305.659 529.793 305H535.207ZM398.965 360.27C396.328 360.642 394.316 361.97 392.93 364.254C392.592 365.705 393.158 366.584 394.629 366.891C397.949 366.969 401.27 366.969 404.59 366.891C405.956 366.603 406.522 365.763 406.289 364.371C404.675 361.561 402.234 360.194 398.965 360.27ZM417.95 360.27C415.499 360.587 413.566 361.759 412.149 363.785C411.369 365.352 411.818 366.387 413.497 366.891C416.856 366.969 420.215 366.969 423.575 366.891C424.871 366.609 425.438 365.808 425.274 364.488C425.008 363.95 424.695 363.442 424.336 362.965C422.614 361.118 420.484 360.219 417.95 360.27ZM436.934 360.27C434.168 360.633 432.117 362.039 430.782 364.488C430.618 365.809 431.184 366.609 432.481 366.891C435.84 366.969 439.2 366.969 442.559 366.891C444.005 366.555 444.533 365.676 444.141 364.254C442.51 361.572 440.107 360.244 436.934 360.27ZM530.986 308.944C540.969 308.747 548.947 312.602 554.918 320.511C560.718 329.323 561.538 338.593 557.379 348.319C556.254 350.633 554.839 352.745 553.134 354.656C551.894 354.989 551.382 354.517 551.596 353.241C558.123 345.123 559.518 336.181 555.78 326.417C551.942 318.274 545.604 313.29 536.769 311.467C526.12 310.105 517.651 313.736 511.36 322.356C506.77 329.583 505.868 337.253 508.653 345.366C511.288 352.021 515.862 356.841 522.372 359.824C532.136 363.562 541.078 362.168 549.197 355.641C550.472 355.426 550.944 355.939 550.612 357.179C543.579 363.115 535.519 365.186 526.433 363.393C517.126 361.016 510.584 355.417 506.807 346.597C503.719 338.041 504.458 329.838 509.022 321.987C514.231 314.121 521.553 309.773 530.986 308.944ZM528.132 355.511C529.333 355.657 529.661 356.272 529.117 357.356C528.645 357.817 528.152 357.838 527.64 357.418C527.089 356.59 527.253 355.954 528.132 355.511ZM417.364 345.621C421.275 345.355 423.502 347.151 424.043 351.012C423.879 353.589 422.589 355.327 420.176 356.227C416.836 356.911 414.551 355.68 413.321 352.535C412.682 349.044 414.03 346.74 417.364 345.621ZM398.379 345.621C400.717 345.278 402.611 346.02 404.063 347.848C405.567 350.439 405.313 352.842 403.301 355.055C401.302 356.577 399.154 356.811 396.856 355.758C394.161 353.85 393.477 351.37 394.805 348.316C395.673 346.976 396.865 346.077 398.379 345.621ZM436.348 345.621C439.729 345.276 441.898 346.721 442.852 349.957C443.193 353.282 441.766 355.411 438.575 356.344C435.299 356.699 433.17 355.312 432.188 352.184C431.798 348.847 433.185 346.66 436.348 345.621ZM437.403 347.496C435.979 347.673 434.944 348.415 434.297 349.723C433.688 352 434.489 353.543 436.7 354.352C438.776 354.632 440.163 353.792 440.86 351.832C441.105 349.276 439.952 347.83 437.403 347.496ZM399.434 347.496C397.738 347.711 396.664 348.648 396.211 350.309C395.967 352.341 396.807 353.689 398.731 354.352C400.993 354.636 402.419 353.679 403.008 351.48C402.996 349.105 401.804 347.776 399.434 347.496ZM418.418 347.496C416.764 347.685 415.69 348.583 415.196 350.191C414.915 352.268 415.755 353.654 417.715 354.352C420.23 354.63 421.676 353.516 422.051 351.012C421.761 348.885 420.549 347.713 418.418 347.496ZM517.796 343.083C518.813 343.02 519.757 343.245 520.626 343.76C522.045 345.342 523.542 346.839 525.118 348.251C526.167 350.125 525.941 351.828 524.441 353.357C523.214 354.198 521.901 354.362 520.503 353.85C518.13 352.379 516.264 350.43 514.905 348.005C514.388 345.468 515.352 343.827 517.796 343.083ZM540.314 349.604C541.378 349.542 541.809 350.034 541.606 351.081C541.509 351.301 541.366 351.485 541.175 351.635C538.345 353.224 535.31 353.962 532.07 353.85C531.148 353.254 531.107 352.598 531.947 351.881C534.954 351.847 537.743 351.088 540.314 349.604ZM518.412 345.175C516.999 345.54 516.568 346.401 517.12 347.759C517.813 348.69 518.592 349.551 519.457 350.343C519.607 350.152 519.791 350.009 520.011 349.912C521.373 349.825 521.784 350.42 521.242 351.696C521.476 351.91 521.763 352.034 522.103 352.065C523.604 351.637 523.994 350.734 523.272 349.358C522.5 348.812 521.782 348.197 521.119 347.513C520.62 347.904 520.086 347.965 519.519 347.697C518.996 347.023 519.037 346.387 519.642 345.79C519.3 345.455 518.89 345.25 518.412 345.175ZM523.333 326.595C524.464 326.56 524.895 327.093 524.625 328.194C523.813 329.089 523.095 330.053 522.472 331.086C523.002 331.399 523.556 331.666 524.133 331.886C526.434 328.142 529.776 326.563 534.162 327.148C538.971 328.349 541.555 331.425 541.914 336.377C541.835 339.549 540.563 342.113 538.099 344.067C538.407 344.6 538.714 345.134 539.022 345.667C539.576 345.195 540.129 344.724 540.683 344.252C541.804 343.98 542.317 344.411 542.221 345.544C540.404 347.73 538.086 349.022 535.269 349.42C535.049 349.323 534.865 349.18 534.715 348.989C534.436 348.159 534.702 347.605 535.515 347.328C536.067 347.171 536.601 346.966 537.115 346.713L536.192 345.052C531.928 346.652 528.236 345.79 525.118 342.468C523.188 339.854 522.552 336.963 523.21 333.793C522.689 333.551 522.155 333.386 521.611 333.301C521.271 334.529 521.046 335.78 520.934 337.054C520.275 337.73 519.66 337.689 519.088 336.931C518.885 332.798 520.3 329.353 523.333 326.595ZM414.786 322.77C417.679 322.723 420.57 322.782 423.457 322.945C425.401 323.476 426.749 324.667 427.5 326.52C427.604 326.905 427.682 327.296 427.735 327.691C427.793 329.332 427.813 330.972 427.793 332.613C429.168 332.565 430.535 332.624 431.895 332.789C433.635 333.712 434.28 335.138 433.829 337.066C433.399 338.199 432.598 338.921 431.426 339.234C430.49 339.293 429.552 339.312 428.614 339.293C428.633 341.871 428.614 344.45 428.555 347.027C428.193 347.59 427.705 347.727 427.09 347.438C426.857 347.283 426.721 347.068 426.68 346.793C426.622 344.293 426.602 341.793 426.622 339.293H410.45C410.469 341.832 410.45 344.371 410.391 346.91C409.814 347.799 409.189 347.838 408.516 347.027C408.457 344.45 408.438 341.871 408.457 339.293C407.558 339.312 406.66 339.293 405.762 339.234C404.063 338.806 403.164 337.712 403.067 335.953C403.172 334.256 404.031 333.162 405.645 332.672C406.855 332.613 408.066 332.594 409.278 332.613C409.258 331.05 409.278 329.488 409.336 327.926C409.597 325.516 410.867 323.895 413.145 323.062C413.707 322.957 414.254 322.859 414.786 322.77ZM548.927 334.716C552.51 334.782 553.967 336.587 553.295 340.13C552.992 341.984 552.418 343.748 551.573 345.421C550.41 346.93 548.912 347.401 547.081 346.836C545.238 345.96 544.48 344.504 544.805 342.468C545.092 341.606 545.379 340.745 545.666 339.884C545.834 338.796 546.08 337.73 546.405 336.685C547.015 335.724 547.856 335.068 548.927 334.716ZM549.542 336.808C548.877 336.96 548.426 337.37 548.189 338.038C548.534 338.187 548.841 338.392 549.112 338.653C549.494 339.892 549.022 340.466 547.697 340.376C547.447 341.392 547.16 342.397 546.835 343.391C546.876 344.129 547.246 344.621 547.943 344.867C548.744 345.06 549.36 344.814 549.789 344.129C549.641 343.942 549.456 343.798 549.235 343.698C548.771 342.773 549.038 342.157 550.035 341.853C550.251 341.969 550.456 341.969 550.65 341.853C550.995 340.747 551.241 339.619 551.388 338.469C551.219 337.418 550.604 336.864 549.542 336.808ZM539.637 335.208C538.461 330.938 535.651 328.928 531.208 329.179C530.219 329.427 529.275 329.816 528.378 330.348C524.941 333.17 524.264 336.553 526.348 340.499C528.589 343.42 531.481 344.343 535.023 343.268C538.453 341.678 539.992 338.991 539.637 335.208ZM523.826 321.181C525.018 321.107 525.449 321.64 525.118 322.78C519.903 326.029 517.196 330.746 516.997 336.931C516.279 337.771 515.623 337.73 515.028 336.808C515.093 329.947 518.026 324.738 523.826 321.181ZM405.997 334.605C404.756 335.48 404.756 336.358 405.997 337.242C414.356 337.32 422.715 337.32 431.075 337.242C431.387 337.096 431.642 336.881 431.836 336.598C432.156 335.72 431.902 335.076 431.075 334.664C422.715 334.605 414.356 334.586 405.997 334.605ZM414.551 324.762C412.768 325.08 411.694 326.134 411.329 327.926C411.27 329.488 411.25 331.05 411.27 332.613H425.801C425.821 331.011 425.801 329.41 425.743 327.809C425.343 326.081 424.269 325.085 422.52 324.82C419.864 324.762 417.208 324.742 414.551 324.762ZM517.55 320.935C518.677 320.811 519.149 321.303 518.965 322.411C516.403 325.073 514.598 328.19 513.551 331.763C512.841 332.442 512.225 332.36 511.706 331.517C511.623 331.23 511.623 330.942 511.706 330.655C512.781 326.86 514.729 323.62 517.55 320.935ZM542.16 318.72C543.289 318.598 544.315 318.864 545.236 319.52C546.902 320.816 548.358 322.313 549.604 324.011C550.6 326.076 550.21 327.82 548.435 329.24C547.187 329.927 545.915 329.968 544.621 329.363C543.041 327.743 541.421 326.164 539.76 324.626C538.711 322.751 538.937 321.049 540.437 319.52C540.975 319.147 541.55 318.881 542.16 318.72ZM542.529 320.812C541.24 321.372 540.932 322.274 541.606 323.519C542.378 324.065 543.096 324.68 543.759 325.364C544.367 324.889 544.962 324.889 545.543 325.364C545.861 326.022 545.759 326.597 545.236 327.087C545.562 327.404 545.952 327.609 546.405 327.702C547.867 327.36 548.319 326.498 547.758 325.118C547.065 324.187 546.286 323.326 545.42 322.534C545.271 322.725 545.086 322.868 544.867 322.965C543.504 323.052 543.094 322.457 543.636 321.181C543.31 320.935 542.941 320.812 542.529 320.812ZM622.039 323.524C622.037 323.524 622.035 323.524 622.034 323.523C622.046 323.528 622.06 323.531 622.073 323.535C622.067 323.533 622.06 323.531 622.054 323.529C622.082 323.538 622.108 323.545 622.131 323.552C622.151 323.558 622.171 323.564 622.191 323.569C622.189 323.569 622.187 323.569 622.186 323.568C622.193 323.57 622.2 323.573 622.206 323.574C622.207 323.575 622.209 323.575 622.21 323.575C622.227 323.579 622.244 323.582 622.261 323.586C622.274 323.589 622.286 323.592 622.293 323.594C622.308 323.597 622.321 323.599 622.324 323.6C622.321 323.599 622.315 323.598 622.31 323.597C622.305 323.596 622.297 323.593 622.288 323.591C622.526 323.64 622.759 323.643 622.98 323.607C622.603 323.652 622.257 323.587 622.039 323.521L622.039 323.524ZM621.263 323.042C621.44 323.22 621.627 323.336 621.779 323.413L622.189 322.593L622.666 321.64L621.263 323.042ZM532.316 315.397C535.154 315.738 536.405 317.338 536.069 320.196C535.002 322.728 533.176 323.487 530.593 322.473C529.039 321.476 528.445 320.061 528.809 318.228C529.385 316.536 530.554 315.593 532.316 315.397ZM622.667 321.638L622.651 321.68L622.506 322.018L622.585 321.842L622.676 321.63L622.667 321.638ZM417.364 309.059C421.201 308.739 423.643 310.419 424.688 314.098C425.036 318.043 423.298 320.485 419.473 321.422C415.699 321.669 413.335 319.97 412.383 316.324C412.094 312.536 413.754 310.115 417.364 309.059ZM531.947 317.612C530.766 318.266 530.54 319.168 531.27 320.319C532.248 321.052 533.11 320.929 533.854 319.95C534.244 318.35 533.608 317.571 531.947 317.612ZM434.239 309.059C438.184 309.039 442.13 309.059 446.075 309.117C447.77 309.602 448.767 310.716 449.063 312.457C449.141 313.941 449.141 315.426 449.063 316.91C448.649 319.004 447.379 320.156 445.254 320.367C439.278 320.445 433.301 320.445 427.325 320.367C426.568 320.154 426.314 319.666 426.563 318.902C428.049 317.553 429.553 316.224 431.075 314.918C431.17 313.941 431.268 312.965 431.368 311.988C431.799 310.483 432.756 309.506 434.239 309.059ZM418.418 310.934C418.006 311.036 417.576 311.133 417.129 311.227C414.83 312.29 413.951 314.067 414.493 316.559C415.203 318.422 416.551 319.399 418.536 319.488C421.154 319.292 422.56 317.885 422.754 315.27C422.528 312.621 421.082 311.176 418.418 310.934ZM435.176 310.934C434.324 311.061 433.718 311.53 433.36 312.34C433.216 313.466 433.138 314.599 433.125 315.738C432.164 316.661 431.168 317.54 430.137 318.375C435.176 318.453 440.215 318.453 445.254 318.375C446.224 318.265 446.829 317.737 447.071 316.793C447.149 315.387 447.149 313.98 447.071 312.574C446.789 311.681 446.183 311.153 445.254 310.992C441.895 310.934 438.536 310.914 435.176 310.934ZM525.917 315.89C526.981 316.026 527.33 316.6 526.963 317.612C526.433 318.212 525.858 318.253 525.241 317.735C524.828 316.855 525.054 316.24 525.917 315.89ZM437.403 313.746C439.278 313.727 441.153 313.746 443.028 313.805C443.652 314.39 443.652 314.977 443.028 315.562C441.114 315.641 439.199 315.641 437.286 315.562C436.646 314.902 436.685 314.297 437.403 313.746ZM407.263 158C409.526 158.609 411.326 159.899 412.664 161.872C414.495 165.193 415.582 168.726 415.924 172.47C416.529 171.424 417.174 170.405 417.86 169.413C417.189 167.409 416.646 165.37 416.23 163.299C416.4 160.816 417.691 159.287 420.102 158.713C421.782 158.445 423.243 158.887 424.484 160.038C425.195 161.116 425.773 162.271 426.216 163.503C426.744 163.646 427.287 163.646 427.846 163.503C427.795 160.704 429.085 158.87 431.718 158H434.572C437.324 159.149 438.65 161.255 438.546 164.317C445.08 166.992 447.865 171.816 446.902 178.788C449.688 179.196 452.372 179.976 454.952 181.131C457.186 182.785 458.036 184.994 457.499 187.755C456.427 191.092 454.151 192.62 450.672 192.34C454.239 195.736 455.869 199.881 455.563 204.772C462.882 216.132 467.026 228.564 467.995 242.067C468.084 247.054 467.032 251.775 464.836 256.231C462.892 259.495 460.073 261.533 456.378 262.346H451.08C446.698 261.404 442.282 260.488 437.832 259.595C434.267 259.25 430.7 258.944 427.133 258.677C426.433 259.377 425.72 260.091 424.994 260.817C424.013 261.444 422.993 261.953 421.936 262.346H418.268C416.631 261.832 415.204 260.948 413.988 259.696C412.727 261.005 411.232 261.888 409.504 262.346H406.039C402.625 261.274 400.621 258.963 400.028 255.416C399.96 250.865 399.892 246.313 399.824 241.762C399.194 240.707 398.617 239.62 398.091 238.501C396.447 238.274 395.326 237.391 394.729 235.852C393.887 233.27 393.411 230.62 393.302 227.903C392.751 221.761 392.954 215.647 393.914 209.562C394.853 204.898 396.823 200.754 399.824 197.13C399.96 188.774 399.96 180.418 399.824 172.062C399.061 168.975 397.702 166.189 395.747 163.706C394.538 161.255 395.116 159.353 397.48 158H407.263ZM453.118 208.746C452.863 209.079 452.524 209.318 452.099 209.46C450.86 209.87 449.603 210.176 448.329 210.377C447.948 211.891 447.506 213.385 447.003 214.86C447.234 215.384 447.405 215.927 447.513 216.49C448.497 219.781 450.501 222.193 453.525 223.726C456.874 224.697 459.287 226.769 460.76 229.941C461.283 232.339 460.365 233.189 458.009 232.489C457.157 230.889 456.07 229.462 454.748 228.209C450.789 227.134 447.766 224.858 445.679 221.382C445.131 224.145 445.607 226.726 447.106 229.126C448.847 231.521 450.036 234.171 450.672 237.074C453.841 239.257 456.321 242.043 458.111 245.431C458.927 246.211 459.811 246.889 460.76 247.468C461.192 248.256 461.124 249.004 460.556 249.71C459.209 250.447 457.918 250.312 456.684 249.303C456.335 250.194 455.825 250.975 455.156 251.646C453.465 252.429 452.446 251.919 452.099 250.117C452.428 249.188 452.869 248.305 453.423 247.468C453.604 246.818 453.775 246.173 453.933 245.532C452.895 244.086 451.706 242.761 450.367 241.558C449.657 243.726 448.774 245.832 447.717 247.876C446.544 249.473 445.525 251.171 444.66 252.971C444.107 254.276 443.801 255.635 443.743 257.047C446.295 257.685 448.877 258.194 451.487 258.575C456.83 259.386 460.533 257.314 462.594 252.359C463.98 248.328 464.524 244.184 464.225 239.928C462.999 228.845 459.534 218.519 453.831 208.95C453.625 208.78 453.387 208.712 453.118 208.746ZM403.594 246.856C403.56 249.574 403.594 252.292 403.696 255.009C404.383 257.851 406.184 259.039 409.097 258.575C411.367 257.668 412.353 256.003 412.052 253.582C408.906 251.762 406.087 249.52 403.594 246.856ZM416.026 255.62C417.369 258.633 419.543 259.414 422.547 257.964C420.341 257.285 418.167 256.504 416.026 255.62ZM426.216 203.855C425.868 206.838 424.746 209.487 422.853 211.803C422.776 213.194 423.116 214.485 423.872 215.676C425.252 217.231 426.916 218.351 428.866 219.038L429.579 219.751C429.916 220.859 429.61 221.708 428.662 222.299C427.839 222.422 427.024 222.389 426.216 222.197C426.248 222.915 425.975 223.493 425.401 223.93C424.121 224.427 423.204 224.053 422.65 222.809C422.595 221.759 422.391 220.739 422.039 219.751C421.118 218.453 420.302 217.095 419.592 215.676C417.854 217.482 416.054 219.214 414.192 220.872C414.998 223.421 415.473 226.037 415.619 228.719C417.109 228.97 418.604 229.207 420.102 229.432C421.46 230.518 421.46 231.606 420.102 232.692C418.736 232.838 417.377 232.804 416.026 232.591C416.282 234.394 417.2 235.753 418.778 236.667C419.669 238.307 419.227 239.394 417.453 239.928C414.548 238.606 412.815 236.364 412.255 233.202C412.238 229.889 411.831 226.628 411.033 223.42C409.342 224.77 407.712 226.197 406.142 227.699C405.126 229.863 404.31 232.105 403.696 234.425C403.166 235.53 402.453 236.481 401.556 237.278C402.612 239.385 403.869 241.355 405.327 243.188C411.32 249.803 418.759 253.777 427.643 255.11C431.75 255.2 435.826 255.574 439.871 256.231C440.59 252.347 442.187 248.883 444.66 245.838C445.937 243.365 446.718 240.749 447.003 237.991C446.687 236.566 446.246 235.173 445.679 233.813C444.94 232.642 444.227 231.453 443.539 230.247C442.642 231.179 441.553 231.927 440.278 232.489C439.68 232.671 439.069 232.773 438.444 232.795C437.673 232.932 437.096 232.66 436.711 231.979C436.308 230.135 437.089 229.15 439.055 229.024C440.204 228.145 441.054 227.023 441.603 225.661C441.908 220.366 442.893 215.203 444.558 210.173C443.168 209.812 441.877 209.234 440.686 208.44C439.521 207.517 438.842 206.328 438.648 204.874C434.428 205.39 430.284 205.05 426.216 203.855ZM407.874 196.11C405.627 196.983 403.691 198.342 402.066 200.187C399.043 204.294 397.345 208.914 396.971 214.045C396.601 219.212 396.669 224.375 397.174 229.534C397.363 231.19 397.669 232.82 398.091 234.425C398.61 234.448 399.087 234.312 399.518 234.018C400.461 232.448 401.107 230.749 401.455 228.923C401.959 227.643 402.57 226.42 403.289 225.254C406.795 222.087 410.361 218.996 413.988 215.981C416.596 213.508 418.94 210.824 421.019 207.931C421.539 207.027 421.946 206.076 422.242 205.078C422.931 203.339 422.558 201.912 421.122 200.798C417.309 199.289 413.504 197.761 409.708 196.213C409.101 196.111 408.489 196.077 407.874 196.11ZM366.335 216.127C366.339 216.114 366.345 216.099 366.35 216.082L366.348 216.081C366.344 216.096 366.34 216.112 366.335 216.127ZM89.1782 211.81C89.1727 211.818 89.1674 211.825 89.1635 211.83C89.1612 211.833 89.1595 211.837 89.1577 211.84C89.1582 211.839 89.159 211.838 89.1596 211.837C89.1655 211.829 89.175 211.815 89.186 211.799L89.1977 211.78C89.1904 211.791 89.1837 211.802 89.1782 211.81ZM569.982 211.681C569.982 211.68 569.981 211.679 569.981 211.678L569.978 211.674C569.98 211.677 569.981 211.68 569.982 211.681ZM82.1459 208.033C82.1419 208.042 82.1381 208.051 82.1342 208.06L82.1684 207.987C82.1608 208.002 82.1531 208.018 82.1459 208.033ZM445.781 193.461C446.186 197.442 445.065 200.907 442.418 203.855C442.283 204.195 442.283 204.534 442.418 204.874C443.168 205.673 444.085 206.183 445.169 206.402C446.88 206.58 448.579 206.511 450.264 206.198C450.888 205.982 451.399 205.609 451.793 205.078C452.173 199.985 450.168 196.112 445.781 193.461ZM453.118 184.393C449.415 182.791 445.543 182.145 441.501 182.456C438.933 182.658 436.487 183.371 434.164 184.596C429.281 188.05 425.884 192.603 423.974 198.251L424.585 198.862C429.411 201.453 434.506 202.132 439.871 200.9C440.574 200.139 441.152 199.29 441.603 198.353C442.245 195.952 442.279 193.54 441.705 191.117C441.778 190.025 442.355 189.38 443.437 189.182C446.058 188.296 448.707 188.159 451.385 188.773C454.041 188.117 454.618 186.657 453.118 184.393ZM507.581 142.174C524.926 142.074 542.272 142.074 559.617 142.174C561.298 142.678 562.401 143.756 562.925 145.407V183.907C562.401 185.559 561.298 186.637 559.617 187.141C553.952 187.216 548.287 187.241 542.622 187.216V196.239C544.428 196.214 546.233 196.239 548.037 196.314C549.302 196.968 549.728 197.996 549.315 199.397C549.11 199.884 548.784 200.26 548.337 200.525C543.437 200.7 538.524 200.775 533.599 200.751C528.787 200.726 523.974 200.701 519.162 200.676C517.896 200.022 517.47 198.994 517.883 197.593C518.109 196.966 518.535 196.54 519.162 196.314C520.965 196.239 522.77 196.214 524.576 196.239V187.216H512.996C513.021 191.277 512.996 195.337 512.92 199.397C512.695 200.024 512.268 200.45 511.642 200.676C503.521 200.776 495.4 200.776 487.279 200.676C486.649 200.422 486.198 199.996 485.925 199.397V147.964C486.198 147.366 486.649 146.939 487.279 146.686C492.943 146.61 498.608 146.585 504.273 146.61C504.335 144.355 505.438 142.876 507.581 142.174ZM490.437 196.239H508.484V187.216C506.349 187.063 504.971 185.96 504.348 183.907C504.273 178.995 504.248 174.082 504.273 169.169H490.437V196.239ZM529.087 196.239H538.111V187.216H529.087V196.239ZM434.673 162.892C434.264 161.82 433.483 161.412 432.331 161.668C432.058 161.976 431.82 162.316 431.617 162.688C431.549 163.571 431.48 164.454 431.413 165.337C431.321 165.748 431.152 166.122 430.904 166.458C428.995 166.928 427.092 167.438 425.197 167.986C424.613 167.847 424.103 167.575 423.668 167.171C423.125 165.812 422.582 164.453 422.039 163.095C421.349 162.013 420.669 162.013 420 163.095C420.494 165.374 421.072 167.65 421.733 169.922C421.65 170.395 421.479 170.837 421.223 171.247C419.201 173.843 417.842 176.764 417.147 180.011C416.108 184.914 415.667 189.873 415.823 194.888C417.007 195.158 418.162 195.532 419.287 196.009C419.816 196.165 420.326 196.132 420.815 195.907C422.355 191.808 424.665 188.207 427.745 185.105C427.878 182.464 428.626 180.018 429.987 177.769C431.526 175.689 433.53 174.976 435.998 175.629C436.714 176.501 436.783 177.418 436.203 178.38C435.45 178.835 434.633 179.14 433.756 179.297C433.125 179.792 432.65 180.403 432.331 181.131C435.442 179.7 438.737 178.919 442.214 178.788C442.552 178.752 442.824 178.616 443.03 178.38C443.329 176.897 443.397 175.402 443.234 173.896C441.842 170.393 439.294 168.184 435.591 167.272C435.422 167.103 435.251 166.933 435.081 166.764C434.827 165.495 434.69 164.204 434.673 162.892ZM407.263 161.974C404.561 161.679 401.843 161.577 399.111 161.668C401.232 164.69 402.693 168.019 403.493 171.654C403.527 179.06 403.629 186.465 403.798 193.869C404.634 193.383 405.518 193.009 406.448 192.748C408.269 192.654 410.036 192.313 411.747 191.729C412.017 188.547 412.152 185.32 412.154 182.049C412.12 178.856 412.086 175.663 412.052 172.47C411.889 170.293 411.413 168.187 410.625 166.152C410.098 164.268 408.977 162.875 407.263 161.974ZM498.558 188.87C500.987 188.568 502.015 189.62 501.641 192.028C500.987 193.294 499.959 193.72 498.558 193.307C497.293 192.653 496.866 191.625 497.28 190.224C497.534 189.594 497.96 189.143 498.558 188.87ZM508.785 182.704H558.414V146.61H508.785V182.704ZM534.822 154.761C535.069 154.132 535.758 153.78 536.422 153.966C537.131 154.165 537.545 154.9 537.346 155.609L531.368 176.964C531.169 177.673 530.433 178.086 529.724 177.888C529.015 177.689 528.601 176.954 528.799 176.245L534.779 154.891L534.822 154.761ZM541.954 158.578C542.474 158.058 543.318 158.058 543.838 158.578L549.818 164.557C550.338 165.077 550.338 165.922 549.818 166.442L543.838 172.422C543.318 172.942 542.474 172.942 541.954 172.422C541.433 171.901 541.433 171.057 541.954 170.536L546.989 165.499L541.954 160.463C541.433 159.942 541.433 159.099 541.954 158.578ZM523.162 158.578C523.682 158.058 524.527 158.058 525.047 158.578C525.567 159.099 525.567 159.942 525.047 160.463L520.01 165.499L525.047 170.536L525.139 170.638C525.566 171.161 525.535 171.934 525.047 172.422C524.559 172.91 523.787 172.94 523.263 172.513L523.162 172.422L517.183 166.442C516.662 165.922 516.662 165.077 517.183 164.557L523.162 158.578ZM490.437 164.657H504.273V160.146H490.437V164.657ZM490.437 155.634H504.273V151.122H490.437V155.634ZM182.322 135.951C182.339 135.944 182.359 135.938 182.378 135.93L182.377 135.926C182.359 135.934 182.341 135.943 182.322 135.951ZM182.381 135.925L182.382 135.928L182.388 135.925C182.41 135.915 182.432 135.902 182.454 135.892C182.43 135.903 182.406 135.914 182.381 135.925ZM395.507 56C400.73 56.0004 404.391 64.4466 406.303 75.5C416.685 71.6553 425.719 70.661 428.333 75.252C430.948 79.843 425.584 87.286 417.122 94.4912C419.102 96.1651 420.985 97.9548 422.76 99.8506C428.225 105.746 430.154 110.555 428.335 113.755C427.177 115.783 424.708 116.817 421.067 116.817C418.983 116.817 416.515 116.482 413.69 115.805C411.186 115.191 408.719 114.43 406.302 113.526C404.388 124.555 400.73 133 395.5 133C390.271 133 386.612 124.571 384.7 113.526C382.282 114.43 379.815 115.191 377.311 115.805C374.486 116.473 372.018 116.817 369.934 116.817C366.293 116.817 363.824 115.79 362.666 113.755C360.05 109.152 365.423 101.712 373.892 94.5039C365.423 87.2951 360.05 79.8551 362.673 75.2451C364.493 72.0467 369.556 71.3358 377.318 73.1953C379.822 73.8087 382.289 74.5696 384.706 75.4736C386.621 64.4445 390.284 56.0002 395.507 56ZM395.507 108.736C392.711 110.172 389.948 111.442 387.272 112.528C387.703 115.171 388.292 117.784 389.037 120.354C390.844 126.454 393.322 130.246 395.507 130.246C397.693 130.246 400.172 126.454 401.978 120.354H401.969C402.717 117.784 403.309 115.171 403.743 112.528C401.067 111.436 398.304 110.165 395.507 108.736ZM179.092 128.636C179.094 128.635 179.096 128.634 179.097 128.634L179.1 128.633C179.098 128.633 179.095 128.634 179.092 128.636ZM414.984 96.2559C412.688 98.0929 410.215 99.8928 407.646 101.616C407.464 104.735 407.162 107.82 406.745 110.75C409.219 111.696 411.75 112.486 414.32 113.117C420.425 114.58 424.897 114.295 425.99 112.373L425.981 112.377C427.07 110.455 425.081 106.379 420.782 101.741C418.961 99.7945 417.025 97.9622 414.984 96.2559ZM376.03 96.2627C373.986 97.9666 372.047 99.7965 370.223 101.741C365.918 106.379 363.931 110.449 365.024 112.371C366.117 114.292 370.585 114.579 376.694 113.116H376.687C379.259 112.488 381.791 111.7 384.268 110.757C383.851 107.827 383.549 104.742 383.368 101.623C380.798 99.9032 378.326 98.0981 376.03 96.2627ZM386.191 103.467C386.35 105.628 386.568 107.725 386.841 109.741C388.696 108.973 390.593 108.116 392.514 107.177V107.169C391.442 106.589 390.379 105.989 389.326 105.371C388.272 104.753 387.227 104.118 386.191 103.467ZM404.807 103.465C403.779 104.112 402.733 104.746 401.67 105.369C400.608 105.992 399.546 106.594 398.484 107.176C400.406 108.115 402.304 108.973 404.157 109.74C404.43 107.726 404.648 105.626 404.807 103.465ZM395.507 83.3555C393.901 84.1976 392.293 85.0909 390.683 86.0352C389.073 86.9795 387.509 87.9449 385.991 88.9307C385.825 92.6447 385.825 96.365 385.991 100.079C387.508 101.066 389.072 102.031 390.683 102.974C392.294 103.917 393.9 104.81 395.499 105.652C397.102 104.809 398.707 103.916 400.315 102.974C401.924 102.029 403.49 101.065 405.01 100.079C405.176 96.365 405.176 92.6447 405.01 88.9307C403.497 87.9427 401.934 86.9763 400.324 86.0332C398.713 85.09 397.107 84.1976 395.507 83.3555ZM394.02 91.2178C394.709 90.9281 395.467 90.8514 396.199 90.999C396.93 91.1468 397.602 91.5124 398.129 92.0479C398.656 92.5833 399.016 93.2653 399.162 94.0078C399.307 94.7505 399.232 95.5211 398.947 96.2207C398.661 96.9202 398.178 97.5187 397.558 97.9395C396.938 98.36 396.209 98.5839 395.463 98.584C394.463 98.584 393.504 98.1808 392.797 97.4629C392.09 96.7448 391.693 95.7704 391.693 94.7549C391.693 93.9976 391.914 93.2576 392.329 92.6279C392.743 91.9984 393.331 91.5076 394.02 91.2178ZM383.211 90.7979C381.448 92.018 379.768 93.2592 378.185 94.5068C379.768 95.7545 381.448 96.9956 383.211 98.2158V98.2119C383.172 96.977 383.153 95.7418 383.154 94.5068C383.155 93.2719 383.174 92.0352 383.211 90.7979ZM407.789 90.7949C407.828 92.0299 407.847 93.265 407.846 94.5C407.845 95.7351 407.826 96.9716 407.789 98.209C409.552 96.989 411.232 95.7476 412.815 94.5C411.232 93.2523 409.551 92.0112 407.789 90.791V90.7949ZM376.692 75.8848C370.586 74.4233 366.113 74.7074 365.022 76.6289C363.931 78.5506 365.923 82.6264 370.223 87.2656C372.046 89.2103 373.985 91.0402 376.028 92.7441C378.324 90.9088 380.797 89.1091 383.366 87.3857C383.547 84.2665 383.85 81.1815 384.267 78.252C381.792 77.3064 379.262 76.5162 376.692 75.8848ZM425.981 76.6357C424.888 74.7144 420.42 74.4278 414.311 75.8906C411.741 76.5227 409.212 77.3147 406.738 78.2607C407.154 81.1939 407.456 84.267 407.637 87.3828C410.257 89.1283 412.725 90.9256 414.99 92.7383C417.028 91.0378 418.963 89.2127 420.782 87.2725C425.082 82.6335 427.073 78.5573 425.981 76.6357ZM386.841 79.2676C386.568 81.2821 386.35 83.381 386.191 85.542C387.226 84.8896 388.271 84.2546 389.326 83.6377C390.38 83.0209 391.444 82.4197 392.517 81.834C390.652 80.9198 388.759 80.0635 386.841 79.2676ZM404.157 79.2656C402.302 80.0342 400.405 80.8909 398.484 81.8301V81.8389C399.546 82.4201 400.609 83.0212 401.672 83.6416C402.736 84.262 403.781 84.8939 404.807 85.5371C404.653 83.4405 404.436 81.3488 404.157 79.2656ZM395.5 58.7607C393.315 58.7608 390.835 62.5527 389.03 68.6533C388.285 71.2223 387.696 73.8355 387.265 76.4775C389.944 77.5667 392.711 78.8383 395.511 80.2686C398.258 78.8712 401.024 77.5995 403.739 76.5C403.308 73.8504 402.718 71.2296 401.971 68.6533C400.164 62.553 397.686 58.7612 395.5 58.7607Z" fill="black"/>
</svg>
